<?xml version="1.0" encoding="UTF-8"?>
<svg version="1.1" xmlns="http://www.w3.org/2000/svg" width="512" height="512">
<path d="M0 0 C1.15330879 -0.00768229 2.30661759 -0.01536458 3.49487513 -0.02327967 C4.75750267 -0.0215467 6.0201302 -0.01981374 7.32101917 -0.01802826 C8.67939507 -0.02319775 10.03776792 -0.02922468 11.39613658 -0.03603506 C15.12806846 -0.05215613 18.85992335 -0.05575313 22.59188592 -0.05723 C26.6172694 -0.06093443 30.64261308 -0.0760308 34.66797352 -0.08950043 C43.46971552 -0.11665474 52.27143928 -0.1287146 61.0732162 -0.13752174 C66.57015637 -0.14304874 72.06708951 -0.15152385 77.56402493 -0.16053009 C92.78650152 -0.18491393 108.0089725 -0.20551278 123.2314682 -0.21228027 C124.20558869 -0.21271941 125.17970918 -0.21315854 126.18334847 -0.21361098 C127.64800508 -0.21426581 127.64800508 -0.21426581 129.14225072 -0.21493387 C131.12085164 -0.2158208 133.09945256 -0.21671393 135.07805347 -0.21761322 C136.05950574 -0.21805608 137.040958 -0.21849894 138.05215124 -0.21895522 C153.95281753 -0.22685013 169.85330044 -0.26175552 185.7538959 -0.30833226 C202.08278898 -0.3557771 218.41159008 -0.38068478 234.7405532 -0.38301611 C243.90708136 -0.38484866 253.07337059 -0.39632877 262.23983288 -0.43265533 C270.04582474 -0.46348158 277.85150383 -0.47368431 285.65754499 -0.45717913 C289.6387032 -0.44937424 293.61923181 -0.451183 297.60031223 -0.47929382 C301.24942048 -0.50482437 304.89742783 -0.50233449 308.54653511 -0.4781124 C310.48251129 -0.47236573 312.41850693 -0.49603265 314.3543312 -0.52095652 C322.33056412 -0.43082535 328.07615749 1.03425658 334.25896168 6.26285553 C338.66835281 11.78464154 340.38491109 16.45583548 340.37921619 23.54598236 C340.38127819 25.5210804 340.38127819 25.5210804 340.38338184 27.53607941 C340.37984267 28.99863456 340.37620786 30.46118949 340.37248707 31.9237442 C340.37220505 33.46111296 340.37236322 34.99848185 340.37292957 36.53585052 C340.37321697 40.71323736 340.36732946 44.89059559 340.36035562 49.06797576 C340.35411259 53.43219467 340.35351752 57.79641421 340.35233021 62.1606369 C340.3492197 70.4266301 340.34101007 78.6926101 340.33098072 86.95859748 C340.31981089 96.36840157 340.31430694 105.77820628 340.30928528 115.18801534 C340.29882724 134.54630289 340.28123321 153.90457815 340.25896168 173.26285553 C341.06937916 173.25663681 341.87979664 173.25041809 342.71477222 173.24401093 C345.78817323 173.22349407 348.86153878 173.20875004 351.93498707 173.19762421 C353.89261191 173.18887738 355.8502051 173.17377131 357.8077898 173.15848541 C387.56001305 173.06858525 427.86914944 177.91232664 450.61052418 199.45426178 C460.14160457 209.91134761 459.55253326 222.22818749 459.51775074 235.5734024 C459.52046408 237.32365311 459.52402694 239.07390267 459.52837086 240.82415009 C459.53745629 245.55757024 459.53396651 250.29090281 459.52761269 255.02432442 C459.52253275 259.98888756 459.52724967 264.95344344 459.53038502 269.9180069 C459.53401885 278.25351044 459.52924085 286.58897848 459.51970387 294.92447662 C459.50882045 304.54763302 459.51234644 314.17070466 459.52335668 323.793859 C459.53244614 332.07097773 459.53370671 340.34807101 459.52847934 348.62519312 C459.52536877 353.5622436 459.52492516 358.4992543 459.53155231 363.43630219 C459.5373493 368.07879777 459.53328593 372.72118455 459.5217638 377.36366844 C459.51912978 379.06275439 459.5198607 380.76184956 459.52428913 382.46093178 C459.57881717 405.5157445 459.57881717 405.5157445 451.25896168 415.26285553 C429.35856648 437.24652219 390.76330198 442.31506382 361.24724293 442.46598053 C360.32441517 442.47299484 359.40158741 442.48000916 358.45079517 442.48723602 C355.49096709 442.50463598 352.53133902 442.51108772 349.57146168 442.51285553 C348.56074604 442.51353027 347.5500304 442.51420502 346.50868702 442.51490021 C331.88384199 442.4993658 317.64315482 442.13291449 303.25896168 439.26285553 C302.35855152 439.09656647 301.45814137 438.9302774 300.53044605 438.75894928 C283.19563401 435.51542935 265.07740749 430.72620688 251.25896168 419.26285553 C250.68275074 418.84519928 250.1065398 418.42754303 249.51286793 417.99723053 C244.51321652 414.25684294 241.21674826 409.13621526 239.25896168 403.26285553 C239.17043349 401.37628738 239.14133945 399.48670028 239.14543629 397.59806061 C239.14551182 396.43708359 239.14558735 395.27610657 239.14566517 394.07994843 C239.15082645 392.82675308 239.15598774 391.57355774 239.16130543 390.28238678 C239.16342785 388.35769814 239.16342785 388.35769814 239.16559315 386.39412689 C239.16940762 382.98615312 239.17922877 379.5782221 239.19029713 376.1702652 C239.20053424 372.6913689 239.2050957 369.21246568 239.21013355 365.73355865 C239.22085201 358.90997341 239.23791559 352.08641652 239.25896168 345.26285553 C238.32559136 345.26562091 237.39222105 345.26838629 236.43056679 345.27123547 C213.72988683 345.33780515 191.02921952 345.38711904 168.3284626 345.41829205 C157.35058914 345.43376738 146.37278011 345.45486968 135.39494801 345.48917389 C125.82776557 345.51905579 116.2606298 345.53842568 106.69340199 345.54512101 C101.62663255 345.54903531 96.55999662 345.55824838 91.49326992 345.5800457 C86.72531776 345.6003917 81.95755425 345.60669313 77.1895628 345.60217857 C75.43880279 345.60300462 73.68803653 345.60898149 71.93731403 345.62047195 C69.54786305 345.6353867 67.1591254 345.63181311 64.76965809 345.62361908 C64.07606971 345.6323576 63.38248132 345.64109613 62.66787511 345.65009946 C57.38451146 345.60109081 54.26232431 344.1630677 50.47136402 340.56729889 C48.72357235 337.24522769 48.83000731 334.05644332 48.86052418 330.39176178 C48.857654 329.63241837 48.85478382 328.87307495 48.85182667 328.09072113 C48.84978911 326.48785403 48.85529746 324.88496189 48.8678484 323.28214264 C48.88388535 320.83699253 48.86800197 318.39350077 48.84880543 315.9484024 C48.85078835 314.3878519 48.85463304 312.82730242 48.86052418 311.26676178 C48.85445148 310.53953415 48.84837879 309.81230652 48.84212208 309.06304169 C48.90305799 304.63331223 49.4429379 301.73127542 52.25896168 298.26285553 C55.74195462 295.62236966 59.72688029 295.98353469 63.91911793 295.98941803 C65.45102598 295.96910647 66.98292695 295.9482553 68.51482105 295.92691803 C70.90835505 295.90447331 73.30160713 295.88790454 75.69524097 295.88199615 C88.33514381 295.82948851 98.62540407 294.89686233 108.70036793 286.43473053 C110.25896168 285.26285553 110.25896168 285.26285553 112.25896168 285.26285553 C112.52708668 284.70211334 112.79521168 284.14137115 113.07146168 283.56363678 C114.7838065 280.24596869 116.81897256 277.14223841 118.82146168 273.99332428 C120.48373981 270.83589923 121.32017501 267.69693112 122.25896168 264.26285553 C121.60665829 264.2665427 120.9543549 264.27022987 120.28228474 264.27402878 C104.39024835 264.36247145 88.4982979 264.42860955 72.60607624 264.47010422 C64.92061986 264.49070552 57.23532804 264.5187793 49.5499773 264.56461334 C42.84927968 264.60455595 36.14870127 264.63030602 29.4478879 264.63920951 C25.90173517 264.64441179 22.35592341 264.65658749 18.80988026 264.68577576 C14.8455781 264.71814035 10.88160566 264.71881017 6.9171648 264.71695709 C5.16496632 264.73852875 5.16496632 264.73852875 3.37736988 264.76053619 C-4.33487061 264.72155953 -9.75705079 263.70077527 -15.76447582 258.51676178 C-22.08569338 250.60610512 -22.89315679 243.14313011 -22.87475109 233.24983978 C-22.87701665 232.35268181 -22.8792822 231.45552383 -22.88161641 230.53117925 C-22.88793714 227.53051066 -22.88712828 224.52988746 -22.88630199 221.52921295 C-22.88929469 219.37546989 -22.89269747 217.22172736 -22.89647961 215.06798553 C-22.90531262 209.22081271 -22.90765743 203.37365452 -22.90829539 197.52647567 C-22.9090063 193.87231465 -22.91114138 190.21815736 -22.91379261 186.56399727 C-22.92304373 173.81281676 -22.92712779 161.0616467 -22.92634106 148.31046295 C-22.92574033 136.42943113 -22.93629182 124.54844471 -22.95208472 112.66742438 C-22.9651656 102.46257412 -22.97052472 92.25773869 -22.96988565 82.05288011 C-22.96963082 75.95994967 -22.97247363 69.86705958 -22.9830637 63.7741375 C-22.99275383 58.04252696 -22.99281752 52.31099528 -22.98554707 46.57938194 C-22.98450237 44.47876877 -22.98685729 42.37815065 -22.99290752 40.27754593 C-23.00064663 37.40387911 -22.99596989 34.53048336 -22.98827648 31.6568222 C-22.99342004 30.83112187 -22.99856361 30.00542154 -23.00386304 29.15469998 C-22.95191847 20.33800545 -21.84371073 12.32335709 -15.32306957 5.85660553 C-10.49067061 1.58322444 -6.38742136 0.01600154 0 0 Z M-4.74103832 17.26285553 C-7.349188 20.75012316 -7.01550171 24.67024544 -6.98154736 28.84311676 C-6.98325621 29.61015875 -6.98496505 30.37720074 -6.98672569 31.16748643 C-6.99002169 33.73941003 -6.97901513 36.31107312 -6.9680891 38.88297272 C-6.96752501 40.72590377 -6.96784151 42.56883527 -6.96897411 44.41176605 C-6.96954871 49.41760715 -6.95777704 54.4233527 -6.9438262 59.42917156 C-6.93133671 64.65955561 -6.93014975 69.88994178 -6.92777538 75.12033844 C-6.92155538 85.02607244 -6.9051375 94.93176238 -6.8850764 104.83747697 C-6.86273361 116.11425348 -6.85172805 127.39103209 -6.84168553 138.66782522 C-6.82077174 161.8661931 -6.78558563 185.06452185 -6.74103832 208.26285553 C24.66525818 208.53683432 56.07123758 208.74908717 87.47844609 208.87563948 C91.18954765 208.89064727 94.90064685 208.90617921 98.61174488 208.92203522 C99.71992545 208.92675681 99.71992545 208.92675681 100.85049351 208.93157378 C112.80003889 208.98373567 124.74888879 209.07831902 136.6980221 209.18868908 C148.96657644 209.30106115 161.23476753 209.36759271 173.50381535 209.39191747 C181.0699173 209.40835264 188.63405342 209.4601784 196.19954988 209.55785313 C202.00907291 209.62901891 207.8173474 209.63628033 213.6272192 209.62014771 C216.00446874 209.62344184 218.38179453 209.64721893 220.75859928 209.69332123 C233.59594024 210.47921426 233.59594024 210.47921426 244.94547558 205.65357971 C246.9466378 203.6208509 248.40298191 201.63985274 250.04389191 199.2672081 C258.72585491 187.49165223 278.88684776 182.91247725 292.38396168 179.57535553 C293.13878834 179.38497711 293.893615 179.19459869 294.67131519 178.99845123 C301.26860923 177.46467903 307.93844262 176.58516094 314.64519215 175.6893692 C315.66660801 175.55158806 316.68802387 175.41380692 317.74039173 175.27185059 C320.24638511 174.93402814 322.75257436 174.59774054 325.25896168 174.26285553 C325.30567445 154.66126487 325.34094698 135.0596855 325.36258602 115.45805073 C325.37290028 106.35675255 325.38696349 97.25548894 325.40984058 88.15421295 C325.42976986 80.22189981 325.44267703 72.28961171 325.44713867 64.35727423 C325.44974683 60.15684801 325.45588028 55.95649343 325.47042179 51.75609016 C325.48399838 47.80237073 325.48818416 43.84875244 325.48517704 39.8950119 C325.48572717 38.44419238 325.48970419 36.99336947 325.49737263 35.54257011 C325.50733448 33.56062901 325.50373642 31.57863361 325.49947071 29.59667206 C325.5013143 28.4877551 325.50315788 27.37883814 325.50505733 26.23631763 C325.17321471 22.22681387 324.51676909 19.43730491 321.52418721 16.64304888 C318.73127831 14.94134005 317.03833896 14.88794033 313.78038502 14.88812542 C312.66020103 14.88091888 311.54001705 14.87371233 310.3858881 14.86628741 C309.15516449 14.8736617 307.92444088 14.88103598 306.65642262 14.88863373 C304.69542433 14.88267212 304.69542433 14.88267212 302.69480991 14.87659007 C299.06298079 14.86598594 295.43139716 14.87414327 291.79957867 14.88534057 C287.88405116 14.89416997 283.96855621 14.88574272 280.05302906 14.87947845 C272.38130258 14.86998104 264.70967003 14.87659854 257.03795052 14.8887414 C248.10830022 14.90234979 239.1786724 14.90072456 230.24901438 14.89860807 C214.31871708 14.8954168 198.38846447 14.90709376 182.45818043 14.92667389 C166.99202075 14.94567863 151.52591345 14.9527616 136.05974293 14.9471817 C119.22754695 14.94112694 102.39537403 14.94129541 85.56317997 14.95266753 C83.76910623 14.95387485 81.97503249 14.95508084 80.18095875 14.95628548 C79.29818626 14.95688902 78.41541378 14.95749255 77.50589061 14.95811438 C71.27802982 14.96199737 65.05017759 14.96159843 58.82231617 14.95969963 C51.23505155 14.95757977 43.64783287 14.96278591 36.06058121 14.97731318 C32.18772784 14.9845679 28.31494145 14.98862505 24.44208241 14.98406982 C20.24848874 14.97925725 16.05507915 14.98988777 11.86150074 15.00215912 C10.63077713 14.99837979 9.40005352 14.99460047 8.13203526 14.99070662 C7.01185127 14.99653882 5.89166729 15.00237101 4.73753834 15.00837994 C3.76914146 15.00924671 2.80074459 15.01011349 1.80300236 15.01100653 C-0.86683117 15.27530848 -2.47996594 15.84569259 -4.74103832 17.26285553 Z M258.00896168 210.82535553 C255.31306631 213.82303023 254.07840063 216.1099515 254.25896168 220.26285553 C257.47056468 228.61302334 266.37129442 233.27737952 274.08440113 236.77140045 C318.00239204 255.57666792 378.05774162 254.91048019 422.25896168 237.26285553 C435.01339638 231.84996616 435.01339638 231.84996616 443.25896168 221.26285553 C443.25896168 217.11259906 442.82412192 214.98696709 440.25896168 211.70035553 C400.0355418 179.01882688 297.40031782 174.55648494 258.00896168 210.82535553 Z M-6.74103832 223.26285553 C-8.23175031 241.02678755 -8.23175031 241.02678755 -4.74103832 247.26285553 C-1.97333193 249.10000839 0.21466347 249.51237985 3.49932194 249.50895119 C4.76529064 249.51492433 4.76529064 249.51492433 6.05683446 249.52101815 C7.4400988 249.51227962 7.4400988 249.51227962 8.85130787 249.50336456 C10.32651327 249.50592784 10.32651327 249.50592784 11.8315208 249.5085429 C15.13585843 249.51184423 18.43999422 249.50082339 21.74431324 249.48990631 C24.10940515 249.48934234 26.47449741 249.48965849 28.83958912 249.49079132 C35.2689298 249.49136637 41.69819622 249.47958738 48.12751961 249.46564341 C54.1632397 249.45347323 60.19896581 249.45239822 66.23469612 249.45033966 C78.18973878 249.44596228 90.14475415 249.432652 102.09978199 249.41373444 C113.71306185 249.39537676 125.3263343 249.3812197 136.93962574 249.37271881 C138.01336781 249.37193064 138.01336781 249.37193064 139.10880163 249.37112655 C142.69989615 249.36851647 146.29099072 249.36598906 149.88208532 249.36350274 C179.67439675 249.3427689 209.46667532 249.30699181 239.25896168 249.26285553 C239.25896168 240.68285553 239.25896168 232.10285553 239.25896168 223.26285553 C158.07896168 223.26285553 76.89896168 223.26285553 -6.74103832 223.26285553 Z M254.25896168 243.26285553 C254.15975619 248.42230426 254.08733522 253.58119242 254.03923512 258.74137115 C254.01917458 260.49505032 253.99191917 262.24866306 253.95720387 264.00211334 C253.90843865 266.52929871 253.88593776 269.05559644 253.86833668 271.58316803 C253.84769154 272.36153015 253.82704639 273.13989227 253.80577564 273.94184113 C253.80363433 279.1888425 254.83433953 282.072795 258.25896168 286.26285553 C273.99036521 300.63911943 298.84366686 304.56261745 319.25896168 307.26285553 C319.95022144 307.35856842 320.64148121 307.45428131 321.35368824 307.55289459 C330.15621091 308.61010674 339.0313343 308.50666275 347.88396168 308.51285553 C349.18353306 308.51386765 349.18353306 308.51386765 350.50935841 308.51490021 C377.66758758 308.48137656 417.99867008 307.03158516 438.94255543 286.62223053 C443.17601088 281.68120037 443.3972777 278.26824247 443.35661793 271.97379303 C443.35520298 271.15536926 443.35378803 270.3369455 443.35233021 269.49372101 C443.34672457 266.87506228 443.33417116 264.25648849 443.32146168 261.63785553 C443.3164474 259.86441926 443.31188437 258.09098166 443.3077898 256.31754303 C443.29675332 251.96594771 443.27948493 247.61441603 443.25896168 243.26285553 C442.1895232 243.80845123 441.12008472 244.35404694 440.01823902 244.91617584 C438.58556218 245.64131449 437.15277639 246.36623791 435.71989918 247.09098053 C434.66790333 247.62876129 434.66790333 247.62876129 433.59465504 248.17740631 C421.18939168 254.43372494 407.86329499 257.76442939 394.25896168 260.26285553 C393.45071949 260.41528717 392.6424773 260.56771881 391.80974293 260.72476959 C363.57093493 265.79243165 331.39282029 265.75368411 303.25896168 260.26285553 C302.35113941 260.0859317 301.44331715 259.90900787 300.50798512 259.72672272 C284.00007741 256.37888434 269.24940092 250.90440265 254.25896168 243.26285553 Z M138.25896168 264.26285553 C137.26896168 268.22285553 136.27896168 272.18285553 135.25896168 276.26285553 C132.41634303 282.81667074 129.14920484 288.04633451 124.61443043 293.54801178 C123.15561039 295.02929828 123.15561039 295.02929828 123.25896168 296.26285553 C147.34896168 296.26285553 171.43896168 296.26285553 196.25896168 296.26285553 C194.27896168 293.62285553 192.29896168 290.98285553 190.25896168 288.26285553 C188.46599293 285.27848053 188.46599293 285.27848053 187.07146168 282.51285553 C186.60353199 281.61051178 186.1356023 280.70816803 185.65349293 279.77848053 C183.67151569 274.78189925 182.56266812 269.47768129 181.25896168 264.26285553 C167.06896168 264.26285553 152.87896168 264.26285553 138.25896168 264.26285553 Z M197.25896168 264.26285553 C198.56744186 273.42221679 202.16359994 280.1811169 209.25896168 286.26285553 C209.82099293 286.75398834 210.38302418 287.24512115 210.96208668 287.75113678 C220.00828597 295.1609301 227.51878148 296.26285553 239.25896168 296.26285553 C239.25896168 285.70285553 239.25896168 275.14285553 239.25896168 264.26285553 C225.39896168 264.26285553 211.53896168 264.26285553 197.25896168 264.26285553 Z M254.25896168 303.26285553 C254.15973543 308.27988732 254.08732581 313.29634205 254.03923512 318.31412506 C254.01917799 320.01930447 253.9919251 321.72441559 253.95720387 323.42935944 C253.90842307 325.88705077 253.88593449 328.34382919 253.86833668 330.80191803 C253.84769154 331.55840637 253.82704639 332.31489471 253.80577564 333.09430695 C253.80321007 339.21088929 255.80225469 342.754753 260.12614918 347.16910553 C282.00703426 364.53759019 316.3369945 367.85480642 343.25896168 368.26285553 C344.08243092 368.27606842 344.90590015 368.28928131 345.75432301 368.30289459 C374.54855319 368.54174313 417.26530057 366.92371948 439.38396168 345.51285553 C443.48209795 341.15981126 443.39426994 337.80261818 443.35661793 331.97379303 C443.35520298 331.15536926 443.35378803 330.3369455 443.35233021 329.49372101 C443.34672457 326.87506228 443.33417116 324.25648849 443.32146168 321.63785553 C443.3164474 319.86441926 443.31188437 318.09098166 443.3077898 316.31754303 C443.29675332 311.96594771 443.27948493 307.61441603 443.25896168 303.26285553 C440.50910409 304.34025113 437.87240157 305.45613558 435.22771168 306.77848053 C411.89539211 318.44464031 385.17471036 322.65648501 359.25896168 323.26285553 C358.17832447 323.29355133 358.17832447 323.29355133 357.07585621 323.32486725 C324.13709228 324.16624163 287.69441677 321.516871 258.66521168 304.58316803 C256.42417614 303.10250741 256.42417614 303.10250741 254.25896168 303.26285553 Z M65.25896168 312.26285553 C65.25896168 317.87285553 65.25896168 323.48285553 65.25896168 329.26285553 C122.67896168 329.26285553 180.09896168 329.26285553 239.25896168 329.26285553 C239.25896168 323.65285553 239.25896168 318.04285553 239.25896168 312.26285553 C181.83896168 312.26285553 124.41896168 312.26285553 65.25896168 312.26285553 Z M254.25896168 362.26285553 C254.15960631 367.26157675 254.08726546 372.25971508 254.03923512 377.25919342 C254.01919947 378.95753755 253.99196283 380.65581338 253.95720387 382.35391998 C253.90832752 384.80420593 253.88591296 387.25357493 253.86833668 389.70426178 C253.84769154 390.45558884 253.82704639 391.20691589 253.80577564 391.98101044 C253.80345232 397.51945593 255.13783711 400.678124 258.25896168 405.26285553 C283.48089647 428.93107771 331.53922042 428.0623283 363.25896168 427.26285553 C387.57646906 426.28618503 418.87967886 422.40633149 438.25896168 406.26285553 C442.83815588 400.93521658 443.4011774 397.87194642 443.35661793 390.97379303 C443.35520298 390.15536926 443.35378803 389.3369455 443.35233021 388.49372101 C443.34672457 385.87506228 443.33417116 383.25648849 443.32146168 380.63785553 C443.3164474 378.86441926 443.31188437 377.09098166 443.3077898 375.31754303 C443.29675332 370.96594771 443.27948493 366.61441603 443.25896168 362.26285553 C442.72924259 362.53176102 442.19952351 362.8006665 441.65375233 363.07772064 C393.8431879 387.27116899 330.1382955 389.20613488 279.25896168 373.26285553 C270.63985764 370.197229 262.42502449 366.36431641 254.25896168 362.26285553 Z " fill="#FFDB70" transform="translate(37.74103832244873,34.737144470214844)"/>
<path d="M0 0 C2.61326651 1.51738055 2.8963589 2.62935462 3.70550537 5.52305603 C4.10229842 10.20778392 3.01478376 14.00802126 1.77441406 18.50610352 C1.40147217 19.91451508 1.40147217 19.91451508 1.02099609 21.35137939 C0.19781498 24.44722116 -0.64283867 27.53800794 -1.484375 30.62890625 C-2.06238366 32.78289146 -2.63954032 34.93710546 -3.21588135 37.09153748 C-4.42568197 41.60340365 -5.64378985 46.11291696 -6.86816406 50.62084961 C-8.43642955 56.39645319 -9.98704516 62.17661212 -11.53185654 67.95852757 C-12.72178592 72.40651083 -13.91948419 76.85237201 -15.11969757 81.29759026 C-15.69424764 83.42808308 -16.26674623 85.55913025 -16.83715057 87.69073677 C-17.63607046 90.67038737 -18.44502771 93.6471299 -19.25683594 96.62329102 C-19.49074036 97.50291 -19.72464478 98.38252899 -19.96563721 99.2888031 C-21.14847922 103.58268529 -22.28896652 107.3818147 -25 111 C-27.8125 112.5 -27.8125 112.5 -31 113 C-36.54651163 110.90697674 -36.54651163 110.90697674 -38 108 C-38.38645206 102.19493866 -37.27331361 97.31234524 -35.75268555 91.77929688 C-35.39415497 90.43400658 -35.39415497 90.43400658 -35.02838135 89.0615387 C-34.23974931 86.11156064 -33.43854161 83.16516759 -32.63671875 80.21875 C-32.08278282 78.16060694 -31.52947298 76.10229529 -30.97676086 74.04382324 C-29.8178679 69.7352338 -28.65302481 65.42831272 -27.48364258 61.12255859 C-25.98787286 55.61403836 -24.50445571 50.10228689 -23.02517986 44.58931732 C-21.88394897 40.3399332 -20.73742354 36.09199224 -19.5891819 31.84449768 C-19.04046328 29.8131552 -18.49308397 27.78145043 -17.94708824 25.74937439 C-17.18172798 22.90505321 -16.40956204 20.06266618 -15.63549805 17.22070312 C-15.41251541 16.38724869 -15.18953278 15.55379425 -14.95979309 14.69508362 C-13.65258602 9.92878335 -12.17457146 5.44689537 -10 1 C-6.81333914 -0.59333043 -3.46800147 -0.38375426 0 0 Z " fill="#FFDB70" transform="translate(214,98)"/>
<path d="M0 0 C2.9234693 2.19358516 5.43145136 4.75477339 7.98828125 7.359375 C9.1039875 8.47146332 9.1039875 8.47146332 10.24223328 9.60601807 C11.80891946 11.17368221 13.36941284 12.74755655 14.92407227 14.32714844 C17.30576664 16.74316959 19.71054442 19.13426744 22.11914062 21.5234375 C23.63945865 23.05065336 25.15838731 24.57925383 26.67578125 26.109375 C27.39550613 26.82414001 28.11523102 27.53890503 28.85676575 28.27532959 C29.51802963 28.95242981 30.17929352 29.62953003 30.8605957 30.32714844 C31.44428421 30.91703552 32.02797272 31.50692261 32.62934875 32.11468506 C34.29889452 34.41112596 34.68307463 36.19695232 35 39 C33.86616451 44.40395608 29.58915145 47.8965647 25.83203125 51.671875 C25.11899338 52.39489807 24.40595551 53.11792114 23.67131042 53.862854 C22.16301956 55.38630777 20.65065403 56.90573676 19.13452148 58.42138672 C16.82223892 60.74023343 14.53500435 63.08198814 12.24804688 65.42578125 C10.77751662 66.90511348 9.30555744 68.38302693 7.83203125 69.859375 C7.15259964 70.56036316 6.47316803 71.26135132 5.77314758 71.98358154 C2.55094558 75.16028785 0.64135267 76.82539606 -3.8059082 78.03613281 C-7 78 -7 78 -9.9375 76.5625 C-12.29056469 73.63899538 -12.52982559 71.80219384 -12.42163086 68.09326172 C-11.64738528 64.24938122 -9.10417614 62.12024389 -6.3125 59.53125 C-5.73540283 58.96547241 -5.15830566 58.39969482 -4.5637207 57.81677246 C-2.72714694 56.02476609 -0.86470858 54.26266464 1 52.5 C2.25442228 51.28572959 3.50704866 50.06960097 4.7578125 48.8515625 C7.81816738 45.87912507 10.90202591 42.93318824 14 40 C12.42478279 36.16930757 9.99831402 33.78313758 7.0625 30.90234375 C6.58176025 30.42680557 6.10102051 29.9512674 5.60571289 29.46131897 C4.07517199 27.94852486 2.53809583 26.44260912 1 24.9375 C-0.53720762 23.42796597 -2.0729084 21.91697455 -3.60571289 20.40296936 C-4.99560387 19.03088294 -6.39026285 17.6636314 -7.78515625 16.29663086 C-10.72793252 13.24518725 -12.2884446 11.2337511 -12.3125 7 C-12.24432148 4.3459077 -12.19904836 3.2938333 -10.6875 1.0625 C-6.85703613 -1.34927355 -4.22506592 -1.30442875 0 0 Z " fill="#FFDB70" transform="translate(235,116)"/>
<path d="M0 0 C2.45291885 2.13641319 2.90757462 3.59332831 3.625 6.75 C1.98608153 15.27237604 -8.50074671 22.61881027 -14.4375 28.5 C-15.35982422 29.4178125 -16.28214844 30.335625 -17.23242188 31.28125 C-19.48599899 33.52315055 -21.74189075 35.762666 -24 38 C-18.92476095 44.15257006 -13.36466744 49.71672564 -7.6875 55.3125 C-5.87662979 57.09795449 -4.06791792 58.88560159 -2.26171875 60.67578125 C-1.46725342 61.45864502 -0.67278809 62.24150879 0.14575195 63.0480957 C2.47828013 65.50346934 2.95469902 66.47903872 3.25 69.875 C2.96621485 73.42231438 2.67676107 74.66862746 0 77 C-3.1875 78.1875 -3.1875 78.1875 -7 78 C-8.5949707 76.96020508 -8.5949707 76.96020508 -10.30078125 75.39453125 C-10.99727783 74.75555908 -11.69377441 74.11658691 -12.41137695 73.45825195 C-13.26562256 72.64702881 -14.11986816 71.83580566 -15 71 C-15.53088226 70.4983432 -16.06176453 69.9966864 -16.60873413 69.47982788 C-20.44289482 65.84791772 -24.23064755 62.17183463 -27.99365234 58.46630859 C-29.33854231 57.14825752 -30.69054403 55.83742654 -32.04931641 54.53369141 C-34.02910141 52.63285051 -35.98507377 50.71013331 -37.9375 48.78125 C-38.54674316 48.20499878 -39.15598633 47.62874756 -39.78369141 47.03503418 C-42.5821049 44.22300656 -43.87188985 42.51134064 -44.85302734 38.59521484 C-43.57318979 33.20114278 -40.34486636 30.45532291 -36.4140625 26.6953125 C-35.64194427 25.93072723 -34.86982605 25.16614197 -34.0743103 24.37838745 C-31.6071468 21.94373129 -29.11646198 19.53475895 -26.625 17.125 C-24.95418893 15.4807303 -23.28489895 13.83491343 -21.6171875 12.1875 C-18.56696839 9.18759156 -15.51412112 6.19069962 -12.43994141 3.21533203 C-11.82261139 2.61689484 -11.20528137 2.01845764 -10.56924438 1.40188599 C-7.06648226 -1.72730994 -4.43562665 -1.01163415 0 0 Z " fill="#FFDB70" transform="translate(168,115)"/>
<path d="M0 0 C6.39580603 2.79161206 6.39580603 2.79161206 8 6 C8.35519903 9.83614957 8.54724594 12.14629634 6.4375 15.4375 C3.05368263 17.6066137 0.96044928 17.47798526 -3 17 C-6.16773947 15.80462661 -8.28002773 14.87648798 -10.4375 12.25 C-11.28317724 8.86729105 -10.85449502 6.35694472 -10 3 C-7.05785563 -0.37801761 -4.32601473 -0.59376673 0 0 Z " fill="#FFDB70" transform="translate(314,420)"/>
<path d="M0 0 C4.66666667 2.33333333 4.66666667 2.33333333 6 5 C6.35519903 8.83614957 6.54724594 11.14629634 4.4375 14.4375 C1.05368263 16.6066137 -1.03955072 16.47798526 -5 16 C-8.16773947 14.80462661 -10.28002773 13.87648798 -12.4375 11.25 C-13.29336807 7.82652774 -12.92397668 5.3879145 -12 2 C-8.12278037 -1.64914789 -4.97703705 -1.24425926 0 0 Z " fill="#FFDB70" transform="translate(316,361)"/>
<path d="M0 0 C2.03404542 1.5845577 2.87593734 2.3967149 3.3984375 4.9375 C3.39070313 5.618125 3.38296875 6.29875 3.375 7 C3.38273437 7.680625 3.39046875 8.36125 3.3984375 9.0625 C2.87569726 11.60445256 2.08409848 12.47539104 0 14 C-4.55159521 14.96233727 -8.29191332 14.31611013 -12.5 12.4375 C-15 10 -15 10 -16 6.5 C-16 1.45454545 -16 1.45454545 -14 -1 C-9.32940765 -4.25526134 -4.72838063 -2.31106244 0 0 Z " fill="#FFDB70" transform="translate(319,303)"/>
</svg>
