<?xml version="1.0" encoding="UTF-8"?>
<svg version="1.1" xmlns="http://www.w3.org/2000/svg" width="512" height="512">
<path d="M0 0 C0.77762003 -0.00282738 1.55524006 -0.00565475 2.35642433 -0.00856781 C6.49046774 -0.02343328 10.62447753 -0.03273624 14.75854492 -0.03710938 C18.08255287 -0.0414441 21.40629393 -0.05515747 24.73022461 -0.078125 C88.66818725 -0.51048655 182.56795773 0.33499346 232.11328125 46.203125 C232.75265625 46.75226562 233.39203125 47.30140625 234.05078125 47.8671875 C239.84680353 53.13856983 244.59996782 60.43359708 246.11328125 68.203125 C246.20714085 70.31364261 246.24417398 72.42691351 246.24750233 74.53951454 C246.25196017 75.85106848 246.25641801 77.16262243 246.26101094 78.51392043 C246.26092165 79.97303558 246.2607318 81.43215074 246.26045227 82.89126587 C246.26375165 84.43851704 246.26747738 85.98576735 246.27159375 87.53301656 C246.28161339 91.79166609 246.28533049 96.05030151 246.28798306 100.30896115 C246.29188621 104.89945147 246.30146453 109.48993063 246.31019592 114.08041382 C246.32995984 125.16973043 246.34002637 136.25904795 246.34892371 147.34837776 C246.35330666 152.57014689 246.35867344 157.791915 246.36391258 163.01368332 C246.38092465 180.37127535 246.395419 197.72886675 246.40266132 215.08646584 C246.40457123 219.59100978 246.40649156 224.09555373 246.40844727 228.60009766 C246.40893101 229.7196837 246.40941475 230.83926974 246.40991315 231.99278264 C246.41821412 250.1308775 246.4435523 268.26890642 246.47602794 286.40697248 C246.5090957 305.02749307 246.52710982 323.64798014 246.53030556 342.26853025 C246.5324709 352.72386792 246.54122307 363.17910943 246.56676674 373.63441849 C246.58846982 382.53831285 246.59652606 391.4420877 246.58679996 400.34600551 C246.58225416 404.88801326 246.58415776 409.4297744 246.6035614 413.97174835 C246.62118586 418.13323708 246.62020128 422.29429914 246.60466411 426.45579235 C246.60228695 427.9578648 246.60661728 429.45996674 246.61849276 430.96199413 C246.71162303 443.52359475 244.41073467 452.59342226 236.11328125 462.203125 C235.63503906 462.77546875 235.15679687 463.3478125 234.6640625 463.9375 C200.6728123 501.26794102 130.71464331 505.77109864 83.96875 510.40625 C83.31222946 510.47268204 82.65570892 510.53911407 81.97929382 510.6075592 C68.7310602 511.88025283 55.52660305 512.37257744 42.2265625 512.40625 C41.44894247 512.40907738 40.67132244 512.41190475 39.87013817 512.41481781 C35.73609476 512.42968328 31.60208497 512.43898624 27.46801758 512.44335938 C24.14400963 512.4476941 20.82026857 512.46140747 17.49633789 512.484375 C-12.6396133 512.68806264 -42.5977403 511.26763115 -72.44921875 506.890625 C-73.1723526 506.78707703 -73.89548645 506.68352905 -74.64053345 506.57684326 C-112.91337863 501.07397663 -160.15111786 493.18438857 -189.88671875 466.203125 C-190.83224609 465.4296875 -190.83224609 465.4296875 -191.796875 464.640625 C-198.47030254 458.77387552 -203.02935644 450.16331824 -204.53594565 441.44708061 C-204.78251588 437.3696493 -204.8222514 433.34540845 -204.77560425 429.26342773 C-204.78368905 427.70213009 -204.79481936 426.14084581 -204.80869496 424.57958889 C-204.83769033 420.32808362 -204.82357954 416.07769005 -204.80179143 411.82618284 C-204.78586616 407.22618111 -204.81044274 402.62636234 -204.82965088 398.02639771 C-204.86069127 389.03043454 -204.85409282 380.03488141 -204.83376239 371.03890252 C-204.8179196 363.72429571 -204.8158244 356.40980339 -204.82342911 349.09518433 C-204.82450174 348.05203676 -204.82557437 347.00888919 -204.82667951 345.93413109 C-204.8289177 343.81464677 -204.8311872 341.69516248 -204.83348764 339.57567823 C-204.85342325 319.72586358 -204.83053753 299.87627565 -204.79288508 280.0264982 C-204.76161298 263.01397126 -204.76704587 246.00177872 -204.79931641 228.98925781 C-204.83682173 209.20792802 -204.85150087 189.42679667 -204.83003056 169.64543629 C-204.82780084 167.53397945 -204.82560024 165.42252258 -204.82342911 163.31106567 C-204.82234918 162.27233179 -204.82126925 161.23359791 -204.8201566 160.16338724 C-204.814126 152.86203981 -204.82428537 145.56081881 -204.84078598 138.25949097 C-204.86046811 129.3550932 -204.85500279 120.45112709 -204.81782077 111.54677844 C-204.7994899 107.00810809 -204.79210511 102.47015603 -204.81536484 97.93149185 C-204.83637533 93.76859973 -204.8245184 89.60708489 -204.78752197 85.44431603 C-204.77976604 83.94652786 -204.78353729 82.44862091 -204.80065249 80.95091045 C-204.94039168 67.69564268 -201.39489804 57.77750815 -192.32421875 47.890625 C-156.0030819 14.5144452 -97.307242 8.0261995 -50.51171875 2.953125 C-49.74552216 2.86995026 -48.97932556 2.78677551 -48.18991089 2.70108032 C-32.12222231 0.97948817 -16.1535921 0.04089708 0 0 Z M-167.88671875 68.203125 C-168.44617188 68.64269531 -169.005625 69.08226562 -169.58203125 69.53515625 C-171.92953274 71.55554688 -172.85323368 73.07476558 -173.63671875 76.078125 C-172.31257671 81.59538351 -168.90624358 84.2671491 -164.20898438 87.27880859 C-153.09348128 93.96030615 -141.23810965 98.39590289 -128.88671875 102.203125 C-128.05108398 102.4619043 -127.21544922 102.72068359 -126.35449219 102.98730469 C-49.30877118 126.37671364 38.80795715 126.4202343 199.11328125 91.203125 C205.34178473 87.79004911 211.40979672 84.41968832 215.11328125 78.203125 C215.67847059 75.16596146 215.67847059 75.16596146 214.11328125 72.203125 C182.44287576 36.20660742 107.12237643 34.34507402 62.97167969 31.48486328 C-3.21953858 27.48145686 -114.44441391 22.67395113 -167.88671875 68.203125 Z M-173.88671875 117.203125 C-173.96787868 120.26616078 -174.02729284 123.32703315 -174.07421875 126.390625 C-174.09935547 127.25494141 -174.12449219 128.11925781 -174.15039062 129.00976562 C-174.22860995 135.81484688 -172.96959982 139.02336574 -168.19921875 144.015625 C-132.96701385 172.80833026 -66.16993112 179.80082183 -22.88671875 179.203125 C-22.95890625 180.18410156 -23.03109375 181.16507813 -23.10546875 182.17578125 C-23.19948687 183.53904404 -23.29322098 184.90232643 -23.38671875 186.265625 C-23.47953125 187.57660156 -23.57234375 188.88757813 -23.66796875 190.23828125 C-24.04102469 196.88479748 -23.92614148 203.54889682 -23.88671875 210.203125 C-129.07262006 200.26671513 -129.07262006 200.26671513 -169.4375 178.453125 C-171.72532671 177.05159655 -171.72532671 177.05159655 -173.88671875 177.203125 C-173.96787868 180.26616078 -174.02729284 183.32703315 -174.07421875 186.390625 C-174.09935547 187.25494141 -174.12449219 188.11925781 -174.15039062 189.00976562 C-174.21956927 195.02830745 -173.33520137 198.17034539 -169.51171875 202.90625 C-123.62189999 246.58982747 -20.75822472 242.3394897 38.31420898 241.06665039 C131.85930284 239.33941702 131.85930284 239.33941702 213.43359375 201.03515625 C216.77061621 197.39547361 216.24973814 193.25345254 216.22680664 188.6105957 C216.22702568 187.45414047 216.22702568 187.45414047 216.22724915 186.27432251 C216.22655244 183.72582181 216.21877135 181.17739418 216.2109375 178.62890625 C216.20907246 176.86199483 216.20764896 175.0950829 216.20664978 173.32817078 C216.20283137 168.67734347 216.19300683 164.02654739 216.1819458 159.37573242 C216.17171716 154.63004987 216.16714904 149.88436227 216.16210938 145.13867188 C216.15138398 135.8268092 216.13431564 126.5149697 216.11328125 117.203125 C215.45334671 117.48379822 214.79341217 117.76447144 214.11347961 118.0536499 C189.75021217 128.38770652 189.75021217 128.38770652 179.30078125 131.453125 C178.23351807 131.77192627 177.16625488 132.09072754 176.06665039 132.41918945 C133.16787155 144.93146378 87.13810295 150.28041122 42.515625 150.40625 C40.96317515 150.41331418 39.41072561 150.42044687 37.85827637 150.42764282 C32.92243982 150.44717325 27.98665282 150.45233499 23.05078125 150.453125 C21.78874311 150.45356686 21.78874311 150.45356686 20.50120926 150.45401764 C-4.73421115 150.45544535 -29.8072512 150.30493856 -54.88671875 147.203125 C-55.72475037 147.1013092 -56.56278198 146.99949341 -57.4262085 146.89459229 C-79.81922086 144.15758308 -102.01605131 140.83209638 -123.88671875 135.203125 C-124.82161133 134.96625977 -125.75650391 134.72939453 -126.71972656 134.48535156 C-143.09018394 130.27580538 -158.4929406 124.12255053 -173.88671875 117.203125 Z M-173.88671875 237.203125 C-173.96787868 240.26616078 -174.02729284 243.32703315 -174.07421875 246.390625 C-174.09935547 247.25494141 -174.12449219 248.11925781 -174.15039062 249.00976562 C-174.22860995 255.81484688 -172.96959982 259.02336574 -168.19921875 264.015625 C-132.96701385 292.80833026 -66.16993112 299.80082183 -22.88671875 299.203125 C-22.95890625 300.18410156 -23.03109375 301.16507812 -23.10546875 302.17578125 C-23.19948687 303.53904404 -23.29322098 304.90232643 -23.38671875 306.265625 C-23.47953125 307.57660156 -23.57234375 308.88757813 -23.66796875 310.23828125 C-24.04102469 316.88479748 -23.92614148 323.54889682 -23.88671875 330.203125 C-129.07262006 320.26671513 -129.07262006 320.26671513 -169.4375 298.453125 C-171.72532671 297.05159655 -171.72532671 297.05159655 -173.88671875 297.203125 C-173.96787868 300.26616078 -174.02729284 303.32703315 -174.07421875 306.390625 C-174.09935547 307.25494141 -174.12449219 308.11925781 -174.15039062 309.00976562 C-174.21956927 315.02830745 -173.33520137 318.17034539 -169.51171875 322.90625 C-123.62189999 366.58982747 -20.75822472 362.3394897 38.31420898 361.06665039 C131.85930284 359.33941702 131.85930284 359.33941702 213.43359375 321.03515625 C216.77061621 317.39547361 216.24973814 313.25345254 216.22680664 308.6105957 C216.22702568 307.45414047 216.22702568 307.45414047 216.22724915 306.27432251 C216.22655244 303.72582181 216.21877135 301.17739418 216.2109375 298.62890625 C216.20907246 296.86199483 216.20764896 295.0950829 216.20664978 293.32817078 C216.20283137 288.67734347 216.19300683 284.02654739 216.1819458 279.37573242 C216.17171716 274.63004987 216.16714904 269.88436227 216.16210938 265.13867188 C216.15138398 255.8268092 216.13431564 246.5149697 216.11328125 237.203125 C215.43141754 237.48936234 214.74955383 237.77559967 214.04702759 238.07051086 C210.91624906 239.38351803 207.78430787 240.69372978 204.65234375 242.00390625 C203.57992432 242.45415161 202.50750488 242.90439697 201.40258789 243.36828613 C145.36106097 266.78846605 81.87931047 270.6588534 21.80078125 270.515625 C20.15104173 270.51340209 18.50130214 270.51122559 16.8515625 270.50909424 C-7.16403773 270.46612152 -31.02221156 270.14555751 -54.88671875 267.203125 C-55.72581787 267.1013092 -56.56491699 266.99949341 -57.42944336 266.89459229 C-79.82123088 264.15892316 -102.01749133 260.83172575 -123.88671875 255.203125 C-124.82161133 254.96625977 -125.75650391 254.72939453 -126.71972656 254.48535156 C-143.09018394 250.27580538 -158.4929406 244.12255053 -173.88671875 237.203125 Z M-173.88671875 357.203125 C-174.02258924 360.2254886 -174.12122417 363.24166388 -174.19921875 366.265625 C-174.24111328 367.11318359 -174.28300781 367.96074219 -174.32617188 368.83398438 C-174.42926354 374.17413278 -173.8150392 377.55666997 -170.36499023 381.71704102 C-140.03455832 412.20776588 -70.15088154 418.33603801 -29.22558594 419.26342773 C-27.1125354 419.26526552 -24.99948621 419.23776053 -22.88671875 419.203125 C-22.95890625 420.18410156 -23.03109375 421.16507812 -23.10546875 422.17578125 C-23.19948687 423.53904404 -23.29322098 424.90232643 -23.38671875 426.265625 C-23.47953125 427.57660156 -23.57234375 428.88757813 -23.66796875 430.23828125 C-24.04102469 436.88479748 -23.92614148 443.54889682 -23.88671875 450.203125 C-129.07262006 440.26671513 -129.07262006 440.26671513 -169.4375 418.453125 C-171.72532671 417.05159655 -171.72532671 417.05159655 -173.88671875 417.203125 C-173.96787868 420.26616078 -174.02729284 423.32703315 -174.07421875 426.390625 C-174.09935547 427.25494141 -174.12449219 428.11925781 -174.15039062 429.00976562 C-174.21976973 435.04574771 -173.38283198 438.27233242 -169.40625 442.94140625 C-120.81079713 487.7559772 -14.43088712 484.06233013 47.3026886 481.73348999 C135.57480901 478.8761198 135.57480901 478.8761198 212.6953125 441.84375 C216.28430733 437.691194 216.39314182 433.816769 216.34033203 428.49707031 C216.34077011 427.34039604 216.34077011 427.34039604 216.34121704 426.16035461 C216.33982618 423.6172044 216.32427652 421.0743489 216.30859375 418.53125 C216.30486275 416.76576904 216.30201619 415.00028601 216.30001831 413.23480225 C216.29238868 408.59216578 216.27274592 403.94965481 216.25061035 399.30706787 C216.23013751 394.56801043 216.22101351 389.82893268 216.2109375 385.08984375 C216.18949942 375.79421575 216.15537152 366.49868082 216.11328125 357.203125 C215.43141754 357.48936234 214.74955383 357.77559967 214.04702759 358.07051086 C210.91624906 359.38351803 207.78430787 360.69372978 204.65234375 362.00390625 C203.57992432 362.45415161 202.50750488 362.90439697 201.40258789 363.36828613 C146.174153 386.44866872 83.45701555 390.65971359 24.21573639 390.52118301 C21.76302525 390.5155381 19.31032104 390.5127204 16.85760498 390.51010132 C-7.16364045 390.47282347 -31.01048651 390.07258867 -54.88671875 387.203125 C-55.63348877 387.11591187 -56.38025879 387.02869873 -57.1496582 386.93884277 C-97.61864976 382.20690724 -136.57942904 373.93297492 -173.88671875 357.203125 Z " fill="#FFDB70" transform="translate(234.88671875,-0.203125)"/>
<path d="M0 0 C9.9 0 19.8 0 30 0 C30 9.9 30 19.8 30 30 C20.1 30 10.2 30 0 30 C0 20.1 0 10.2 0 0 Z " fill="#FFDB70" transform="translate(241,421)"/>
<path d="M0 0 C9.9 0 19.8 0 30 0 C30 9.9 30 19.8 30 30 C20.1 30 10.2 30 0 30 C0 20.1 0 10.2 0 0 Z " fill="#FFDB70" transform="translate(241,301)"/>
<path d="M0 0 C9.9 0 19.8 0 30 0 C30 9.9 30 19.8 30 30 C20.1 30 10.2 30 0 30 C0 20.1 0 10.2 0 0 Z " fill="#FFDB70" transform="translate(241,181)"/>
</svg>
