<?xml version="1.0" encoding="UTF-8"?>
<svg version="1.1" xmlns="http://www.w3.org/2000/svg" width="512" height="512">
<path d="M0 0 C1.72582588 -0.00461468 3.45164783 -0.01097139 5.17746162 -0.01890898 C9.89733791 -0.03554752 14.61688907 -0.02738091 19.33676624 -0.0149641 C24.43569409 -0.00589347 29.53456703 -0.01989332 34.63348389 -0.03088379 C44.61335561 -0.0486521 54.59310686 -0.04483653 64.57298326 -0.03323323 C72.68524188 -0.02419255 80.79746679 -0.02297766 88.909729 -0.02732849 C90.06516366 -0.02794142 91.22059832 -0.02855436 92.41104615 -0.02918586 C94.75843224 -0.03046479 97.10581832 -0.03176164 99.45320439 -0.03307623 C121.45459403 -0.04447708 143.45591696 -0.03137606 165.45729566 -0.00987476 C184.32752087 0.00799575 203.19764765 0.00489151 222.06787109 -0.0135498 C243.99158028 -0.03496523 265.91523102 -0.04337849 287.8389492 -0.03110075 C290.17760594 -0.02982658 292.51626268 -0.0285691 294.85491943 -0.02732849 C296.58082752 -0.02640284 296.58082752 -0.02640284 298.34160244 -0.02545848 C306.44228783 -0.02200761 314.54293609 -0.02782829 322.64361572 -0.0372467 C332.5182667 -0.0484755 342.39279052 -0.04540803 352.26742697 -0.02412373 C357.30375001 -0.01362526 362.33986118 -0.00947105 367.37618256 -0.02272034 C371.99018845 -0.03467487 376.60378689 -0.02803128 381.21775603 -0.00681013 C382.88315294 -0.00235703 384.54858455 -0.00458117 386.21395898 -0.01431328 C399.81152694 -0.08765401 410.70157321 1.78907019 420.88232422 11.50793457 C429.84486386 20.89641669 432.49459673 31.03422128 432.39025879 43.76623535 C432.39961873 45.5450368 432.39961873 45.5450368 432.40916777 47.35977364 C432.42227636 50.62034745 432.41767563 53.88031611 432.40522289 57.14087391 C432.39612034 60.66924416 432.41016774 64.19753664 432.42114258 67.72589111 C432.43887723 74.62565631 432.43511048 81.52524691 432.42349201 88.42501879 C432.41443798 94.03537453 432.41324219 99.64568152 432.41758728 105.25604248 C432.41820021 106.0562309 432.41881314 106.85641932 432.41944465 107.68085587 C432.42072362 109.30670597 432.42202048 110.93255605 432.42333502 112.55840611 C432.434726 127.78411152 432.42165041 143.0097204 432.40013355 158.23540998 C432.3822639 171.28398211 432.38536843 184.33241188 432.40380859 197.38098145 C432.42524153 212.55427072 432.43362751 227.72747552 432.42135954 242.90077782 C432.42008542 244.52046075 432.41882793 246.1401437 432.41758728 247.75982666 C432.41666163 248.95502558 432.41666163 248.95502558 432.41571727 250.17436993 C432.41227164 255.77436875 432.41807571 261.37431372 432.42750549 266.9743042 C432.43875384 273.80403903 432.43562612 280.63359011 432.41438252 287.46330404 C432.40390999 290.94425405 432.39968468 294.42489828 432.41297913 297.90584564 C432.42394461 301.68741124 432.41015687 305.46812231 432.39025879 309.24963379 C432.40364312 310.88287944 432.40364312 310.88287944 432.41729784 312.54911995 C432.30104996 323.97557724 428.80438954 333.20937506 420.88232422 341.50793457 C410.96175082 350.97842525 400.44229854 353.10806651 387.05737305 353.05383301 C385.70600202 353.06258864 384.35464132 353.07308128 383.0032959 353.0851593 C379.36968162 353.11279709 375.7364093 353.11642897 372.10270524 353.11543941 C368.29232694 353.11858785 364.48209835 353.1442458 360.67179871 353.16741943 C353.47210077 353.20783619 346.27249307 353.22828625 339.07269925 353.24139333 C330.86937583 353.25731218 322.66620493 353.29574811 314.46297038 353.33598661 C297.60279897 353.41818929 280.74266 353.4724037 263.88232422 353.50793457 C265.76318964 357.28625079 267.6467567 361.06321427 269.53076172 364.83996582 C270.05597412 365.89510376 270.58118652 366.9502417 271.12231445 368.03735352 C274.91013119 375.62610875 278.80646053 383.1495606 282.80892944 390.62715149 C287.5877945 399.56236931 289.85091312 407.70833551 287.26513672 417.95324707 C284.62759447 423.90522294 279.49224545 428.76370222 273.66032887 431.58155251 C270.40966281 432.66555311 267.76308195 432.76537484 264.33659363 432.77536011 C263.69276476 432.77989122 263.04893589 432.78442233 262.38559705 432.78909075 C260.23623901 432.80171335 258.08713506 432.80011581 255.93774414 432.79846191 C254.39335302 432.80444855 252.84896489 432.81125441 251.30458069 432.81881714 C247.11437457 432.83647153 242.92425017 432.84117231 238.73401046 432.84244871 C236.11422805 432.84387129 233.49446636 432.84814293 230.8746891 432.85344315 C221.72967843 432.87194221 212.58472603 432.88011399 203.43969727 432.87854004 C194.92420006 432.87733896 186.40895644 432.89843488 177.8935234 432.93002737 C170.57529931 432.9562076 163.25715796 432.96690659 155.93888742 432.96562922 C151.57126562 432.96512006 147.2038692 432.97077759 142.83629417 432.99198532 C138.72643711 433.01139702 134.6170197 433.01147238 130.50714684 432.99695206 C129.00275528 432.99486641 127.498336 432.99955031 125.99399185 433.01167297 C116.81548978 433.08081915 110.06585313 432.70980403 102.67529297 426.71887207 C97.75245856 421.0893534 94.63324285 415.48190481 95.01733398 407.81188965 C96.2490522 399.68338592 99.05193176 393.17718015 102.88232422 385.94543457 C103.67316406 384.40532715 103.67316406 384.40532715 104.47998047 382.83410645 C105.89795883 380.08363068 107.33352629 377.34327768 108.776474 374.60585594 C109.99729008 372.28983149 111.21674758 369.97309476 112.43603516 367.65626526 C112.87512207 366.82198753 113.31420898 365.98770981 113.76660156 365.12815094 C114.4348999 363.858335 114.4348999 363.858335 115.11669922 362.56286621 C115.5767334 361.68878365 116.03676758 360.81470108 116.51074219 359.91413116 C117.63461027 357.7787362 118.75847078 355.64333725 119.88232422 353.50793457 C119.18640262 353.50646801 118.49048101 353.50500145 117.77347088 353.50349045 C100.80368565 353.46636353 83.8341314 353.4072712 66.86451244 353.32403183 C58.65796285 353.28430122 50.45150831 353.25187849 42.24487305 353.23693848 C35.08807693 353.22389083 27.93149051 353.19684727 20.77481252 353.1533215 C16.98887881 353.13077622 13.20320306 353.11501969 9.41719627 353.11605072 C5.84572766 353.11680148 2.27482776 353.0986864 -1.29649353 353.06676674 C-3.21590734 353.05433071 -5.13541701 353.06129929 -7.05485535 353.06907654 C-18.99301897 352.92685627 -28.40208581 349.82811025 -37.11767578 341.50793457 C-46.08021543 332.11945245 -48.72994829 321.98164786 -48.62561035 309.24963379 C-48.63185031 308.06376616 -48.63809028 306.87789852 -48.64451933 305.6560955 C-48.65762792 302.39552169 -48.65302719 299.13555303 -48.64057446 295.87499523 C-48.6314719 292.34662498 -48.64551931 288.8183325 -48.65649414 285.28997803 C-48.67422879 278.39021283 -48.67046205 271.49062223 -48.65884358 264.59085035 C-48.64978954 258.98049462 -48.64859375 253.37018762 -48.65293884 247.75982666 C-48.65355177 246.95963824 -48.65416471 246.15944982 -48.65479621 245.33501327 C-48.65607519 243.70916317 -48.65737204 242.08331309 -48.65868658 240.45746303 C-48.67007757 225.23175762 -48.65700197 210.00614874 -48.63548511 194.78045917 C-48.61761547 181.73188703 -48.62071999 168.68345726 -48.63916016 155.6348877 C-48.66059309 140.46159842 -48.66897907 125.28839362 -48.6567111 110.11509132 C-48.65543698 108.49540839 -48.6541795 106.87572544 -48.65293884 105.25604248 C-48.65232174 104.4592432 -48.65170464 103.66244392 -48.65106884 102.84149921 C-48.6476232 97.2415004 -48.65342728 91.64155542 -48.66285706 86.04156494 C-48.6741054 79.21183011 -48.67097769 72.38227903 -48.64973408 65.5525651 C-48.63926156 62.0716151 -48.63503624 58.59097086 -48.64833069 55.1100235 C-48.65929617 51.3284579 -48.64550843 47.54774683 -48.62561035 43.76623535 C-48.63453324 42.67740492 -48.64345613 41.58857449 -48.6526494 40.46674919 C-48.53640152 29.0402919 -45.0397411 19.80649408 -37.11767578 11.50793457 C-26.18237271 1.06875111 -14.43174467 -0.08433623 0 0 Z M-26.36767578 25.94543457 C-32.37347839 33.31547954 -32.26595371 41.53121517 -32.2379303 50.64450073 C-32.23878632 51.65989929 -32.23964233 52.67529785 -32.24052429 53.72146606 C-32.24217869 57.1325659 -32.23665709 60.54361657 -32.23120117 63.95471191 C-32.23089483 66.43849498 -32.23102833 68.92227814 -32.23156643 71.40606117 C-32.23176938 77.38555591 -32.22748539 83.36503164 -32.2210651 89.34452162 C-32.2138596 96.26268204 -32.21307005 103.18083494 -32.21228027 110.09899902 C-32.20703187 128.36031325 -32.19307074 146.62162414 -32.18017578 164.88293457 C-32.15955078 205.67918457 -32.13892578 246.47543457 -32.11767578 288.50793457 C49.72232422 288.50793457 131.56232422 288.50793457 215.88232422 288.50793457 C215.88232422 198.74793457 215.88232422 108.98793457 215.88232422 16.50793457 C179.10794922 16.46668457 142.33357422 16.42543457 104.44482422 16.38293457 C87.02616577 16.35562256 87.02616577 16.35562256 69.25561523 16.32775879 C58.84807646 16.32107 58.84807646 16.32107 48.4405365 16.31704712 C43.80424588 16.31518352 39.16800104 16.30768726 34.53172302 16.29678345 C28.61554633 16.28305407 22.69943611 16.27895439 16.78324497 16.28179002 C14.61345767 16.28119716 12.44366802 16.27723796 10.27389443 16.26950431 C7.3386864 16.25952951 4.40373528 16.26196455 1.46852112 16.26742554 C0.62340941 16.26160021 -0.22170229 16.25577488 -1.09242344 16.24977303 C-11.3514455 16.30093344 -19.27122784 18.07949228 -26.36767578 25.94543457 Z M231.88232422 16.50793457 C231.88232422 106.26793457 231.88232422 196.02793457 231.88232422 288.50793457 C292.60232422 288.50793457 353.32232422 288.50793457 415.88232422 288.50793457 C415.94058277 244.64953973 415.94058277 244.64953973 415.97998047 200.7911377 C415.98389609 194.87585438 415.98793701 188.96057117 415.9921875 183.04528809 C415.99297875 181.93324488 415.99297875 181.93324488 415.99378598 180.79873616 C416.00247944 168.83733672 416.01824424 156.87595656 416.03662981 144.91456855 C416.05534722 132.63468154 416.06644484 120.3548046 416.07050121 108.07490391 C416.07324245 100.50041668 416.08189372 92.9259839 416.09815715 85.35151344 C416.11000041 79.53882116 416.11123091 73.72616362 416.10853958 67.91346169 C416.10908939 65.53226639 416.1130621 63.15106901 416.12073517 60.76988602 C416.13070856 57.51493675 416.12828422 54.26021909 416.12283325 51.00526428 C416.12865893 50.06652468 416.13448462 49.12778507 416.14048684 48.16059881 C416.09844771 38.85139209 415.12886669 30.71700174 408.24169922 23.87902832 C401.2325038 17.55551506 394.41556486 16.38035746 385.08657837 16.38768005 C384.42966003 16.38682404 383.7727417 16.38596802 383.09591675 16.38508606 C380.90180697 16.38343926 378.7077746 16.38894077 376.51367188 16.39440918 C374.91097198 16.39471569 373.30827196 16.39458172 371.70557213 16.39404392 C367.42129252 16.39381856 363.13704095 16.39960617 358.85276794 16.40665436 C354.82966017 16.41235757 350.80655915 16.41261793 346.78344727 16.41333008 C335.02473588 16.4185733 323.26602969 16.43253449 311.50732422 16.44543457 C272.09294922 16.47637207 272.09294922 16.47637207 231.88232422 16.50793457 Z M-32.11767578 304.50793457 C-32.11767578 313.4947985 -31.97614373 320.38277085 -26.11767578 327.50793457 C-18.63270359 334.93944267 -11.63502838 336.63045901 -1.15758038 336.63656902 C-0.4780042 336.63832206 0.20157197 336.6400751 0.90174136 336.64188126 C3.17746011 336.64653082 5.45311467 336.64407845 7.72883606 336.64164734 C9.37752083 336.64351584 11.02620516 336.64581669 12.67488879 336.64851266 C17.20459175 336.65463227 21.73427626 336.65449688 26.26398242 336.65331829 C31.14957821 336.65311432 36.03516807 336.65863263 40.92076111 336.66337585 C50.49219887 336.6716838 60.06363048 336.67443076 69.63507155 336.67498823 C77.4146965 336.67546332 85.19431941 336.67751768 92.97394371 336.68068886 C115.02791624 336.68949576 137.08188391 336.69410817 159.13585822 336.69335838 C160.91942017 336.69329845 160.91942017 336.69329845 162.73901367 336.6932373 C163.92950578 336.69319642 165.11999788 336.69315554 166.34656551 336.69311342 C185.64269383 336.69270692 204.93880263 336.70227739 224.23492531 336.71637567 C244.0454075 336.73073562 263.85588018 336.73764607 283.66636771 336.7367819 C294.78951223 336.7364498 305.9126363 336.73920248 317.03577614 336.74995995 C326.50579567 336.75905991 335.97578548 336.76124433 345.44580749 336.75445052 C350.2772457 336.7511828 355.10862686 336.75113775 359.94005966 336.75980377 C364.36468736 336.76765848 368.78921266 336.76624784 373.21383782 336.75751964 C374.81273177 336.75598239 376.41163331 336.75780928 378.01051829 336.76337972 C393.40612672 337.09584289 393.40612672 337.09584289 406.88232422 330.50793457 C414.80897356 322.52425898 415.88232422 315.74011094 415.88232422 304.50793457 C268.04232422 304.50793457 120.20232422 304.50793457 -32.11767578 304.50793457 Z M139.88232422 352.50793457 C124.38858155 379.4468608 124.38858155 379.4468608 111.88232422 408.50793457 C113.04287713 411.98959331 113.80648461 413.95213191 117.12668705 415.66742229 C120.19413438 416.60304153 122.70441288 416.76236069 125.91001892 416.76863098 C127.11985947 416.77571579 128.32970001 416.7828006 129.57620239 416.7901001 C131.55485794 416.78638397 131.55485794 416.78638397 133.57348633 416.78259277 C134.98319264 416.78694218 136.3928966 416.79212609 137.80259705 416.79808044 C141.62492268 416.81145687 145.44714935 416.81205065 149.26949382 416.80951715 C152.46283403 416.80844655 155.65615429 416.81333304 158.84949023 416.81812257 C166.38413175 416.82921297 173.91872341 416.82965773 181.45336914 416.8236084 C189.22133389 416.81756757 196.98911755 416.8298834 204.75705141 416.85117847 C211.43151246 416.86880178 218.10591592 416.87479469 224.78039938 416.87154073 C228.76450212 416.86972895 232.74847566 416.87235348 236.7325573 416.88625526 C240.47957937 416.898841 244.22631938 416.89688264 247.97333717 416.88384438 C249.99987144 416.88035558 252.02641434 416.89165095 254.05291748 416.90341187 C255.26557785 416.89639755 256.47823822 416.88938324 257.72764587 416.88215637 C259.30246687 416.88240798 259.30246687 416.88240798 260.90910244 416.88266468 C264.43228854 416.4386198 266.84654104 415.32363587 269.88232422 413.50793457 C271.30596633 410.66065035 271.1311274 408.68169791 270.88232422 405.50793457 C269.92264001 403.07796263 268.93638306 400.88996433 267.73388672 398.58996582 C267.40541245 397.93877274 267.07693817 397.28757965 266.73851013 396.61665344 C265.67300228 394.5118035 264.59058649 392.41619398 263.50732422 390.32043457 C262.77259139 388.87803555 262.03878906 387.43516218 261.3059082 385.99182129 C255.93573162 375.44293339 250.45729501 364.94994336 244.88232422 354.50793457 C244.55232422 353.84793457 244.22232422 353.18793457 243.88232422 352.50793457 C209.56232422 352.50793457 175.24232422 352.50793457 139.88232422 352.50793457 Z " fill="#FFDB70" transform="translate(64.11767578125,39.4920654296875)"/>
<path d="M0 0 C0.768601 -0.00623996 1.537202 -0.01247993 2.32909393 -0.01890898 C4.89484172 -0.03481581 7.45963642 -0.02224428 10.02539062 -0.00964355 C11.86873935 -0.01506571 13.71208373 -0.0221889 15.55541992 -0.03088379 C20.55541624 -0.04910888 25.55508218 -0.04205293 30.55508423 -0.02936745 C35.789336 -0.0192356 41.02355961 -0.02863364 46.2578125 -0.03491211 C55.04757767 -0.04218796 63.83720837 -0.0326024 72.62695312 -0.0135498 C82.78698248 0.00821878 92.94669076 0.00116737 103.10671234 -0.02085543 C111.8321482 -0.03901115 120.55748745 -0.04156689 129.2829361 -0.03110075 C134.49328372 -0.02486679 139.70348045 -0.02402758 144.91381836 -0.0372467 C149.81245951 -0.04880703 154.71068696 -0.04077601 159.60928345 -0.01766968 C161.40637526 -0.01238358 163.20350192 -0.01389467 165.00057983 -0.02272034 C167.45528259 -0.03366361 169.90866261 -0.01992806 172.36328125 0 C173.07320976 -0.00892289 173.78313828 -0.01784577 174.51457977 -0.02703905 C179.51323776 0.05159015 182.31720761 1.40201353 186.18164062 4.50793457 C190.46916933 9.42303183 190.75998448 13.31568501 190.69921875 19.53918457 C190.70622803 20.42775146 190.7132373 21.31631836 190.72045898 22.23181152 C190.73800761 25.15750747 190.72642732 28.08222946 190.71289062 31.00793457 C190.71558644 33.04764999 190.7194696 35.08736416 190.7244873 37.1270752 C190.73037811 41.39738222 190.72183269 45.66735407 190.703125 49.93762207 C190.68033588 55.40538208 190.69346118 60.87235668 190.71741486 66.34008789 C190.731884 70.55063776 190.72726168 74.76100209 190.71690369 78.97155762 C190.7142395 80.98734633 190.71749531 83.003152 190.7268219 85.0189209 C190.73700574 87.83862794 190.72146069 90.65707139 190.69921875 93.47668457 C190.70731567 94.30595459 190.7154126 95.13522461 190.72375488 95.98962402 C190.64658961 101.28261039 189.78345092 104.3789248 186.18164062 108.50793457 C181.61044684 112.18189318 178.0916745 113.08786766 172.36328125 113.01586914 C171.59468025 113.0221091 170.82607925 113.02834907 170.03418732 113.03477812 C167.46843953 113.05068495 164.90364483 113.03811342 162.33789062 113.0255127 C160.4945419 113.03093485 158.65119752 113.03805804 156.80786133 113.04675293 C151.80786501 113.06497802 146.80819907 113.05792207 141.80819702 113.04523659 C136.57394525 113.03510474 131.33972164 113.04450278 126.10546875 113.05078125 C117.31570358 113.0580571 108.52607288 113.04847154 99.73632812 113.02941895 C89.57629877 113.00765036 79.41659049 113.01470177 69.25656891 113.03672457 C60.53113305 113.05488029 51.8057938 113.05743603 43.08034515 113.04696989 C37.86999753 113.04073593 32.6598008 113.03989672 27.44946289 113.05311584 C22.55082174 113.06467617 17.65259429 113.05664515 12.7539978 113.03353882 C10.95690599 113.02825272 9.15977933 113.02976381 7.36270142 113.03858948 C4.90799866 113.04953275 2.45461864 113.0357972 0 113.01586914 C-0.70992851 113.02479203 -1.41985703 113.03371491 -2.15129852 113.04290819 C-7.14995651 112.96427899 -9.95392636 111.61385561 -13.81835938 108.50793457 C-18.10588808 103.59283731 -18.39670323 99.70018413 -18.3359375 93.47668457 C-18.34294678 92.58811768 -18.34995605 91.69955078 -18.35717773 90.78405762 C-18.37472636 87.85836167 -18.36314607 84.93363968 -18.34960938 82.00793457 C-18.35230519 79.96821915 -18.35618835 77.92850498 -18.36120605 75.88879395 C-18.36709686 71.61848692 -18.35855144 67.34851507 -18.33984375 63.07824707 C-18.31705463 57.61048706 -18.33017993 52.14351246 -18.35413361 46.67578125 C-18.36860275 42.46523138 -18.36398043 38.25486705 -18.35362244 34.04431152 C-18.35095825 32.02852281 -18.35421406 30.01271714 -18.36354065 27.99694824 C-18.37372449 25.1772412 -18.35817944 22.35879775 -18.3359375 19.53918457 C-18.34403442 18.70991455 -18.35213135 17.88064453 -18.36047363 17.02624512 C-18.28330836 11.73325875 -17.42016967 8.63694434 -13.81835938 4.50793457 C-9.24716559 0.83397596 -5.72839325 -0.07199852 0 0 Z M-1.81835938 16.50793457 C-1.81835938 42.90793457 -1.81835938 69.30793457 -1.81835938 96.50793457 C56.26164063 96.50793457 114.34164063 96.50793457 174.18164062 96.50793457 C174.18164062 70.10793457 174.18164062 43.70793457 174.18164062 16.50793457 C116.10164062 16.50793457 58.02164062 16.50793457 -1.81835938 16.50793457 Z " fill="#FFDB70" transform="translate(73.818359375,79.4920654296875)"/>
<path d="M0 0 C0.73250977 -0.00700928 1.46501953 -0.01401855 2.21972656 -0.02124023 C4.62604382 -0.03875584 7.03117209 -0.02722142 9.4375 -0.01367188 C11.11849186 -0.01636866 12.79948221 -0.02025264 14.48046875 -0.02526855 C17.99754743 -0.03115485 21.5142188 -0.02262896 25.03125 -0.00390625 C29.53052189 0.01888312 34.02883927 0.00575532 38.52807617 -0.01819611 C41.99746847 -0.03267779 45.46663594 -0.02803731 48.93603516 -0.01768494 C50.59456496 -0.01502418 52.25311544 -0.01826444 53.91162109 -0.02760315 C56.23329421 -0.03780834 58.55344011 -0.02221466 60.875 0 C62.19371094 0.00318237 63.51242188 0.00636475 64.87109375 0.00964355 C70.3879267 0.79536172 73.2388314 3.0964897 76.78015137 7.29492188 C78.76746485 11.15918319 78.94461752 13.74541501 78.95507812 18.08007812 C78.9620874 18.81258789 78.96909668 19.54509766 78.97631836 20.29980469 C78.99383397 22.70612195 78.98229954 25.11125021 78.96875 27.51757812 C78.97144679 29.19856999 78.97533077 30.87956033 78.98034668 32.56054688 C78.98623298 36.07762556 78.97770709 39.59429692 78.95898438 43.11132812 C78.93619501 47.61060002 78.9493228 52.10891739 78.97327423 56.6081543 C78.98775591 60.07754659 78.98311544 63.54671407 78.97276306 67.01611328 C78.97010231 68.67464309 78.97334257 70.33319357 78.98268127 71.99169922 C78.99288646 74.31337233 78.97729279 76.63351823 78.95507812 78.95507812 C78.95189575 80.27378906 78.94871338 81.5925 78.94543457 82.95117188 C78.15971641 88.46800482 75.85858842 91.31890953 71.66015625 94.86022949 C67.79589493 96.84754297 65.20966312 97.02469564 60.875 97.03515625 C60.14249023 97.04216553 59.40998047 97.0491748 58.65527344 97.05639648 C56.24895618 97.07391209 53.84382791 97.06237767 51.4375 97.04882812 C49.75650814 97.05152491 48.07551779 97.05540889 46.39453125 97.0604248 C42.87745257 97.0663111 39.3607812 97.05778521 35.84375 97.0390625 C31.34447811 97.01627313 26.84616073 97.02940093 22.34692383 97.05335236 C18.87753153 97.06783404 15.40836406 97.06319356 11.93896484 97.05284119 C10.28043504 97.05018043 8.62188456 97.05342069 6.96337891 97.0627594 C4.64170579 97.07296459 2.32155989 97.05737091 0 97.03515625 C-1.31871094 97.03197388 -2.63742188 97.0287915 -3.99609375 97.0255127 C-9.5129267 96.23979453 -12.3638314 93.93866655 -15.90515137 89.74023438 C-17.89246485 85.87597306 -18.06961752 83.28974124 -18.08007812 78.95507812 C-18.0870874 78.22256836 -18.09409668 77.49005859 -18.10131836 76.73535156 C-18.11883397 74.3290343 -18.10729954 71.92390604 -18.09375 69.51757812 C-18.09644679 67.83658626 -18.10033077 66.15559592 -18.10534668 64.47460938 C-18.11123298 60.95753069 -18.10270709 57.44085933 -18.08398438 53.92382812 C-18.06119501 49.42455623 -18.0743228 44.92623886 -18.09827423 40.42700195 C-18.11275591 36.95760966 -18.10811544 33.48844218 -18.09776306 30.01904297 C-18.09510231 28.36051316 -18.09834257 26.70196268 -18.10768127 25.04345703 C-18.11788646 22.72178392 -18.10229279 20.40163802 -18.08007812 18.08007812 C-18.07689575 16.76136719 -18.07371338 15.44265625 -18.07043457 14.08398438 C-17.28471641 8.56715143 -14.98358842 5.71624672 -10.78515625 2.17492676 C-6.92089493 0.18761328 -4.33466312 0.01046061 0 0 Z M-1.5625 16.51757812 C-1.5625 37.63757813 -1.5625 58.75757813 -1.5625 80.51757812 C19.5575 80.51757812 40.6775 80.51757812 62.4375 80.51757812 C62.4375 59.39757812 62.4375 38.27757812 62.4375 16.51757812 C41.3175 16.51757812 20.1975 16.51757812 -1.5625 16.51757812 Z " fill="#FFDB70" transform="translate(185.5625,207.482421875)"/>
<path d="M0 0 C0.73250977 -0.00700928 1.46501953 -0.01401855 2.21972656 -0.02124023 C4.62604382 -0.03875584 7.03117209 -0.02722142 9.4375 -0.01367188 C11.11849186 -0.01636866 12.79948221 -0.02025264 14.48046875 -0.02526855 C17.99754743 -0.03115485 21.5142188 -0.02262896 25.03125 -0.00390625 C29.53052189 0.01888312 34.02883927 0.00575532 38.52807617 -0.01819611 C41.99746847 -0.03267779 45.46663594 -0.02803731 48.93603516 -0.01768494 C50.59456496 -0.01502418 52.25311544 -0.01826444 53.91162109 -0.02760315 C56.23329421 -0.03780834 58.55344011 -0.02221466 60.875 0 C62.19371094 0.00318237 63.51242188 0.00636475 64.87109375 0.00964355 C70.3879267 0.79536172 73.2388314 3.0964897 76.78015137 7.29492188 C78.76746485 11.15918319 78.94461752 13.74541501 78.95507812 18.08007812 C78.9620874 18.81258789 78.96909668 19.54509766 78.97631836 20.29980469 C78.99383397 22.70612195 78.98229954 25.11125021 78.96875 27.51757812 C78.97144679 29.19856999 78.97533077 30.87956033 78.98034668 32.56054688 C78.98623298 36.07762556 78.97770709 39.59429692 78.95898438 43.11132812 C78.93619501 47.61060002 78.9493228 52.10891739 78.97327423 56.6081543 C78.98775591 60.07754659 78.98311544 63.54671407 78.97276306 67.01611328 C78.97010231 68.67464309 78.97334257 70.33319357 78.98268127 71.99169922 C78.99288646 74.31337233 78.97729279 76.63351823 78.95507812 78.95507812 C78.95189575 80.27378906 78.94871338 81.5925 78.94543457 82.95117188 C78.15971641 88.46800482 75.85858842 91.31890953 71.66015625 94.86022949 C67.79589493 96.84754297 65.20966312 97.02469564 60.875 97.03515625 C60.14249023 97.04216553 59.40998047 97.0491748 58.65527344 97.05639648 C56.24895618 97.07391209 53.84382791 97.06237767 51.4375 97.04882812 C49.75650814 97.05152491 48.07551779 97.05540889 46.39453125 97.0604248 C42.87745257 97.0663111 39.3607812 97.05778521 35.84375 97.0390625 C31.34447811 97.01627313 26.84616073 97.02940093 22.34692383 97.05335236 C18.87753153 97.06783404 15.40836406 97.06319356 11.93896484 97.05284119 C10.28043504 97.05018043 8.62188456 97.05342069 6.96337891 97.0627594 C4.64170579 97.07296459 2.32155989 97.05737091 0 97.03515625 C-1.31871094 97.03197388 -2.63742188 97.0287915 -3.99609375 97.0255127 C-9.5129267 96.23979453 -12.3638314 93.93866655 -15.90515137 89.74023438 C-17.89246485 85.87597306 -18.06961752 83.28974124 -18.08007812 78.95507812 C-18.0870874 78.22256836 -18.09409668 77.49005859 -18.10131836 76.73535156 C-18.11883397 74.3290343 -18.10729954 71.92390604 -18.09375 69.51757812 C-18.09644679 67.83658626 -18.10033077 66.15559592 -18.10534668 64.47460938 C-18.11123298 60.95753069 -18.10270709 57.44085933 -18.08398438 53.92382812 C-18.06119501 49.42455623 -18.0743228 44.92623886 -18.09827423 40.42700195 C-18.11275591 36.95760966 -18.10811544 33.48844218 -18.09776306 30.01904297 C-18.09510231 28.36051316 -18.09834257 26.70196268 -18.10768127 25.04345703 C-18.11788646 22.72178392 -18.10229279 20.40163802 -18.08007812 18.08007812 C-18.07689575 16.76136719 -18.07371338 15.44265625 -18.07043457 14.08398438 C-17.28471641 8.56715143 -14.98358842 5.71624672 -10.78515625 2.17492676 C-6.92089493 0.18761328 -4.33466312 0.01046061 0 0 Z M-1.5625 16.51757812 C-1.5625 37.63757813 -1.5625 58.75757813 -1.5625 80.51757812 C19.5575 80.51757812 40.6775 80.51757812 62.4375 80.51757812 C62.4375 59.39757812 62.4375 38.27757812 62.4375 16.51757812 C41.3175 16.51757812 20.1975 16.51757812 -1.5625 16.51757812 Z " fill="#FFDB70" transform="translate(73.5625,207.482421875)"/>
<path d="M0 0 C1.07672974 -0.0112793 2.15345947 -0.02255859 3.26281738 -0.03417969 C5.02716125 -0.0220343 5.02716125 -0.0220343 6.82714844 -0.00964355 C8.69107239 -0.02015747 8.69107239 -0.02015747 10.59265137 -0.03088379 C13.9978753 -0.04547416 17.40212726 -0.04205291 20.80729675 -0.02936745 C24.37154442 -0.01923659 27.9357507 -0.02863335 31.5 -0.03491211 C37.48542738 -0.04218831 43.47065729 -0.0326017 49.45605469 -0.0135498 C56.37491301 0.00821911 63.29329986 0.0011677 70.21214676 -0.02085543 C76.15368306 -0.03901038 82.09507746 -0.04156736 88.03663254 -0.03110075 C91.58476235 -0.02486625 95.13267058 -0.02402872 98.68078613 -0.0372467 C102.63600985 -0.05095221 106.59070592 -0.03195378 110.54589844 -0.00964355 C111.72212769 -0.01774048 112.89835693 -0.0258374 114.11022949 -0.03417969 C115.7253241 -0.01726074 115.7253241 -0.01726074 117.37304688 0 C118.30808044 0.0015081 119.24311401 0.0030162 120.20648193 0.00457001 C123.43531902 0.65991475 124.637185 1.9861788 126.68652344 4.50793457 C127.21777344 6.50793457 127.21777344 6.50793457 127.18652344 8.50793457 C127.20199219 9.49793457 127.20199219 9.49793457 127.21777344 10.50793457 C126.44425138 13.4200176 124.98577122 14.60089121 122.68652344 16.50793457 C120.20648193 17.01129913 120.20648193 17.01129913 117.37304688 17.01586914 C116.29631714 17.02714844 115.2195874 17.03842773 114.11022949 17.05004883 C112.34588562 17.03790344 112.34588562 17.03790344 110.54589844 17.0255127 C108.68197449 17.03602661 108.68197449 17.03602661 106.78039551 17.04675293 C103.37517158 17.0613433 99.97091962 17.05792205 96.56575012 17.04523659 C93.00150246 17.03510573 89.43729618 17.04450249 85.87304688 17.05078125 C79.8876195 17.05805745 73.90238958 17.04847084 67.91699219 17.02941895 C60.99813386 17.00765003 54.07974702 17.01470144 47.16090012 17.03672457 C41.21936382 17.05487952 35.27796941 17.0574365 29.33641434 17.04696989 C25.78828453 17.04073539 22.2403763 17.03989786 18.69226074 17.05311584 C14.73703703 17.06682135 10.78234095 17.04782292 6.82714844 17.0255127 C5.65091919 17.03360962 4.47468994 17.04170654 3.26281738 17.05004883 C1.64772278 17.03312988 1.64772278 17.03312988 0 17.01586914 C-0.93503357 17.01436104 -1.87006714 17.01285294 -2.83343506 17.01129913 C-6.06227215 16.35595439 -7.26413812 15.02969034 -9.31347656 12.50793457 C-9.84472656 10.50793457 -9.84472656 10.50793457 -9.81347656 8.50793457 C-9.82894531 7.51793457 -9.82894531 7.51793457 -9.84472656 6.50793457 C-8.49154751 1.41361344 -4.87144101 0.00785708 0 0 Z " fill="#FFDB70" transform="translate(329.3134765625,287.4920654296875)"/>
<path d="M0 0 C1.07672974 -0.0112793 2.15345947 -0.02255859 3.26281738 -0.03417969 C5.02716125 -0.0220343 5.02716125 -0.0220343 6.82714844 -0.00964355 C8.69107239 -0.02015747 8.69107239 -0.02015747 10.59265137 -0.03088379 C13.9978753 -0.04547416 17.40212726 -0.04205291 20.80729675 -0.02936745 C24.37154442 -0.01923659 27.9357507 -0.02863335 31.5 -0.03491211 C37.48542738 -0.04218831 43.47065729 -0.0326017 49.45605469 -0.0135498 C56.37491301 0.00821911 63.29329986 0.0011677 70.21214676 -0.02085543 C76.15368306 -0.03901038 82.09507746 -0.04156736 88.03663254 -0.03110075 C91.58476235 -0.02486625 95.13267058 -0.02402872 98.68078613 -0.0372467 C102.63600985 -0.05095221 106.59070592 -0.03195378 110.54589844 -0.00964355 C111.72212769 -0.01774048 112.89835693 -0.0258374 114.11022949 -0.03417969 C115.7253241 -0.01726074 115.7253241 -0.01726074 117.37304688 0 C118.30808044 0.0015081 119.24311401 0.0030162 120.20648193 0.00457001 C123.43531902 0.65991475 124.637185 1.9861788 126.68652344 4.50793457 C127.21777344 6.50793457 127.21777344 6.50793457 127.18652344 8.50793457 C127.20199219 9.49793457 127.20199219 9.49793457 127.21777344 10.50793457 C126.44425138 13.4200176 124.98577122 14.60089121 122.68652344 16.50793457 C120.20648193 17.01129913 120.20648193 17.01129913 117.37304688 17.01586914 C116.29631714 17.02714844 115.2195874 17.03842773 114.11022949 17.05004883 C112.34588562 17.03790344 112.34588562 17.03790344 110.54589844 17.0255127 C108.68197449 17.03602661 108.68197449 17.03602661 106.78039551 17.04675293 C103.37517158 17.0613433 99.97091962 17.05792205 96.56575012 17.04523659 C93.00150246 17.03510573 89.43729618 17.04450249 85.87304688 17.05078125 C79.8876195 17.05805745 73.90238958 17.04847084 67.91699219 17.02941895 C60.99813386 17.00765003 54.07974702 17.01470144 47.16090012 17.03672457 C41.21936382 17.05487952 35.27796941 17.0574365 29.33641434 17.04696989 C25.78828453 17.04073539 22.2403763 17.03989786 18.69226074 17.05311584 C14.73703703 17.06682135 10.78234095 17.04782292 6.82714844 17.0255127 C5.65091919 17.03360962 4.47468994 17.04170654 3.26281738 17.05004883 C1.64772278 17.03312988 1.64772278 17.03312988 0 17.01586914 C-0.93503357 17.01436104 -1.87006714 17.01285294 -2.83343506 17.01129913 C-6.06227215 16.35595439 -7.26413812 15.02969034 -9.31347656 12.50793457 C-9.84472656 10.50793457 -9.84472656 10.50793457 -9.81347656 8.50793457 C-9.82894531 7.51793457 -9.82894531 7.51793457 -9.84472656 6.50793457 C-8.49154751 1.41361344 -4.87144101 0.00785708 0 0 Z " fill="#FFDB70" transform="translate(329.3134765625,247.4920654296875)"/>
<path d="M0 0 C1.07672974 -0.0112793 2.15345947 -0.02255859 3.26281738 -0.03417969 C5.02716125 -0.0220343 5.02716125 -0.0220343 6.82714844 -0.00964355 C8.69107239 -0.02015747 8.69107239 -0.02015747 10.59265137 -0.03088379 C13.9978753 -0.04547416 17.40212726 -0.04205291 20.80729675 -0.02936745 C24.37154442 -0.01923659 27.9357507 -0.02863335 31.5 -0.03491211 C37.48542738 -0.04218831 43.47065729 -0.0326017 49.45605469 -0.0135498 C56.37491301 0.00821911 63.29329986 0.0011677 70.21214676 -0.02085543 C76.15368306 -0.03901038 82.09507746 -0.04156736 88.03663254 -0.03110075 C91.58476235 -0.02486625 95.13267058 -0.02402872 98.68078613 -0.0372467 C102.63600985 -0.05095221 106.59070592 -0.03195378 110.54589844 -0.00964355 C111.72212769 -0.01774048 112.89835693 -0.0258374 114.11022949 -0.03417969 C115.7253241 -0.01726074 115.7253241 -0.01726074 117.37304688 0 C118.30808044 0.0015081 119.24311401 0.0030162 120.20648193 0.00457001 C123.43531902 0.65991475 124.637185 1.9861788 126.68652344 4.50793457 C127.21777344 6.50793457 127.21777344 6.50793457 127.18652344 8.50793457 C127.20199219 9.49793457 127.20199219 9.49793457 127.21777344 10.50793457 C126.44425138 13.4200176 124.98577122 14.60089121 122.68652344 16.50793457 C120.20648193 17.01129913 120.20648193 17.01129913 117.37304688 17.01586914 C116.29631714 17.02714844 115.2195874 17.03842773 114.11022949 17.05004883 C112.34588562 17.03790344 112.34588562 17.03790344 110.54589844 17.0255127 C108.68197449 17.03602661 108.68197449 17.03602661 106.78039551 17.04675293 C103.37517158 17.0613433 99.97091962 17.05792205 96.56575012 17.04523659 C93.00150246 17.03510573 89.43729618 17.04450249 85.87304688 17.05078125 C79.8876195 17.05805745 73.90238958 17.04847084 67.91699219 17.02941895 C60.99813386 17.00765003 54.07974702 17.01470144 47.16090012 17.03672457 C41.21936382 17.05487952 35.27796941 17.0574365 29.33641434 17.04696989 C25.78828453 17.04073539 22.2403763 17.03989786 18.69226074 17.05311584 C14.73703703 17.06682135 10.78234095 17.04782292 6.82714844 17.0255127 C5.65091919 17.03360962 4.47468994 17.04170654 3.26281738 17.05004883 C1.64772278 17.03312988 1.64772278 17.03312988 0 17.01586914 C-0.93503357 17.01436104 -1.87006714 17.01285294 -2.83343506 17.01129913 C-6.06227215 16.35595439 -7.26413812 15.02969034 -9.31347656 12.50793457 C-9.84472656 10.50793457 -9.84472656 10.50793457 -9.81347656 8.50793457 C-9.82894531 7.51793457 -9.82894531 7.51793457 -9.84472656 6.50793457 C-8.49154751 1.41361344 -4.87144101 0.00785708 0 0 Z " fill="#FFDB70" transform="translate(329.3134765625,207.4920654296875)"/>
<path d="M0 0 C6.48967772 1.94569481 11.11689361 10.70301636 14.97265625 15.81640625 C15.65457031 16.71166016 16.33648437 17.60691406 17.0390625 18.52929688 C20.42731259 22.99856009 23.76959409 27.50053608 27.04296875 32.0546875 C27.60773926 32.83884033 28.17250977 33.62299316 28.75439453 34.4309082 C30.0726868 36.58804839 30.77161212 38.13264088 31.09765625 40.62890625 C29.02930466 47.34893835 24.70522304 52.41031859 20.41015625 57.87890625 C18.96516107 59.74272653 17.52114045 61.6073028 16.078125 63.47265625 C15.04437744 64.80490234 15.04437744 64.80490234 13.98974609 66.1640625 C11.05073474 69.99274103 8.25166281 73.91153367 5.48046875 77.86328125 C4.09765625 79.62890625 4.09765625 79.62890625 2.09765625 80.62890625 C-4.95447645 81.19762663 -4.95447645 81.19762663 -8.40234375 79.12890625 C-10.51279182 75.6114928 -10.70149271 72.56913121 -9.90234375 68.62890625 C-8.06472788 65.16519864 -5.71769212 62.18793449 -3.27734375 59.12890625 C-2.65988281 58.32582031 -2.04242188 57.52273437 -1.40625 56.6953125 C3.42367508 50.42149403 3.42367508 50.42149403 5.96777344 47.4296875 C6.53399414 46.74261719 7.10021484 46.05554688 7.68359375 45.34765625 C8.19712402 44.74888672 8.7106543 44.15011719 9.23974609 43.53320312 C10.36168681 41.57726209 10.36168681 41.57726209 9.44335938 39.15991211 C8.12658293 36.68331171 6.72868539 34.60406582 4.98046875 32.4140625 C4.37332031 31.64513672 3.76617187 30.87621094 3.140625 30.08398438 C2.50769531 29.29443359 1.87476563 28.50488281 1.22265625 27.69140625 C-10.47500825 12.99093921 -10.47500825 12.99093921 -10.40234375 8.50390625 C-9.90234375 4.62890625 -9.90234375 4.62890625 -8.40234375 2.12890625 C-5.58635994 0.43931596 -3.26728239 0.11042505 0 0 Z " fill="#FFDB70" transform="translate(425.90234375,87.37109375)"/>
<path d="M0 0 C2.5 1.5 2.5 1.5 4 4 C4.7682209 9.38936511 4.26056328 12.1624075 1.1484375 16.65625 C-0.09011897 18.28565158 -1.34863158 19.90004522 -2.625 21.5 C-3.24246094 22.30308594 -3.85992187 23.10617188 -4.49609375 23.93359375 C-9.32601883 30.20741222 -9.32601883 30.20741222 -11.87011719 33.19921875 C-12.43633789 33.88628906 -13.00255859 34.57335937 -13.5859375 35.28125 C-14.09946777 35.88001953 -14.61299805 36.47878906 -15.14208984 37.09570312 C-16.26403056 39.05164416 -16.26403056 39.05164416 -15.34570312 41.46899414 C-14.02892668 43.94559454 -12.63102914 46.02484043 -10.8828125 48.21484375 C-10.27566406 48.98376953 -9.66851562 49.75269531 -9.04296875 50.54492188 C-8.41003906 51.33447266 -7.77710938 52.12402344 -7.125 52.9375 C4.5726645 67.63796704 4.5726645 67.63796704 4.5 72.125 C4 76 4 76 2.5 78.5 C-0.31598381 80.18959029 -2.63506136 80.5184812 -5.90234375 80.62890625 C-12.39202147 78.68321144 -17.01923736 69.92588989 -20.875 64.8125 C-21.55691406 63.91724609 -22.23882812 63.02199219 -22.94140625 62.09960938 C-24.97862225 59.41242445 -26.99430702 56.71078102 -29 54 C-29.67063477 53.09942871 -30.34126953 52.19885742 -31.03222656 51.27099609 C-31.66354492 50.40168457 -32.29486328 49.53237305 -32.9453125 48.63671875 C-33.51008301 47.86416748 -34.07485352 47.09161621 -34.65673828 46.2956543 C-36.12009992 43.79474745 -36.69870903 41.87362538 -37 39 C-34.81466303 32.88997624 -30.25754113 27.88225156 -26.3125 22.8125 C-24.86748131 20.93957957 -23.42346047 19.06588881 -21.98046875 17.19140625 C-21.29130371 16.29695801 -20.60213867 15.40250977 -19.89208984 14.48095703 C-16.9629645 10.64021229 -14.15609796 6.72035493 -11.3828125 2.765625 C-8.48633739 -0.93269915 -4.3457192 -0.59259807 0 0 Z " fill="#FFDB70" transform="translate(348,88)"/>
<path d="M0 0 C1.90625 0.37109375 1.90625 0.37109375 4.40625 1.80859375 C8.84148212 9.38544862 4.56369912 20.02219614 2.546875 27.890625 C2.19720501 29.28052204 1.84807295 30.67055451 1.49945068 32.06071472 C0.77013029 34.95795292 0.03284517 37.85301738 -0.70996094 40.74682617 C-1.65938318 44.44916458 -2.58614834 48.15675557 -3.50680161 51.86633778 C-4.22098804 54.73165003 -4.94823546 57.59352473 -5.67932892 60.45456505 C-6.02648675 61.82057968 -6.36933061 63.18769844 -6.70769501 64.55591774 C-7.18194575 66.46621369 -7.67601503 68.37155627 -8.17089844 70.27661133 C-8.44625427 71.35977127 -8.72161011 72.44293121 -9.00531006 73.55891418 C-10.21564551 76.68603265 -11.52202457 78.25157531 -14.09375 80.37109375 C-17.93810972 81.3922518 -21.17648462 80.89852134 -24.59375 78.93359375 C-29.02898212 71.35673888 -24.75119912 60.71999136 -22.734375 52.8515625 C-22.38470501 51.46166546 -22.03557295 50.07163299 -21.68695068 48.68147278 C-20.95763029 45.78423458 -20.22034517 42.88917012 -19.47753906 39.99536133 C-18.52811682 36.29302292 -17.60135166 32.58543193 -16.68069839 28.87584972 C-15.96651196 26.01053747 -15.23926454 23.14866277 -14.50817108 20.28762245 C-14.16101325 18.92160782 -13.81816939 17.55448906 -13.47980499 16.18626976 C-13.00555425 14.27597381 -12.51148497 12.37063123 -12.01660156 10.46557617 C-11.74124573 9.38241623 -11.46588989 8.29925629 -11.18218994 7.18327332 C-8.94885889 1.41306247 -5.90632798 -0.36363586 0 0 Z " fill="#FFDB70" transform="translate(394.09375,87.62890625)"/>
</svg>
