<?xml version="1.0" encoding="UTF-8"?>
<svg version="1.1" xmlns="http://www.w3.org/2000/svg" width="512" height="512">
<path d="M0 0 C1.01908967 -0.00445784 2.03817933 -0.00891569 3.0881505 -0.01350862 C4.20087564 -0.01332426 5.31360078 -0.01313989 6.46004486 -0.01294994 C7.64754192 -0.01662663 8.83503898 -0.02030332 10.05852079 -0.02409142 C13.35139957 -0.03320034 16.64422857 -0.03782402 19.93711519 -0.04048073 C23.49014589 -0.04439157 27.04316226 -0.05396941 30.59618378 -0.0626936 C39.17562046 -0.0824369 47.75505828 -0.09252189 56.334512 -0.10142139 C60.37838648 -0.10580813 64.42225966 -0.11117397 68.46613312 -0.11641026 C81.91545846 -0.13342105 95.36478299 -0.14791386 108.81411743 -0.155159 C112.30266063 -0.15706878 115.79120383 -0.15898913 119.27974701 -0.16094494 C120.14676898 -0.16142868 121.01379095 -0.16191242 121.90708631 -0.16241082 C135.94332242 -0.17070607 149.97947317 -0.19603512 164.01567203 -0.22852562 C178.43824307 -0.26163726 192.86077079 -0.2796115 207.28338003 -0.28280324 C215.37628315 -0.28496463 223.46906181 -0.29365869 231.5619278 -0.31926441 C238.45613621 -0.34102766 245.35018994 -0.34899434 252.24442881 -0.33929763 C255.75800737 -0.334769 259.27126715 -0.33655431 262.78480148 -0.35605907 C266.60536352 -0.37381145 270.42512598 -0.36665403 274.24568939 -0.35352612 C275.34056876 -0.36449536 276.43544812 -0.37546461 277.56350565 -0.38676625 C292.18115896 -0.26615246 305.18417409 5.14919111 315.87837982 15.08441639 C322.6870683 22.12453319 327.49192391 31.25172628 332.5483017 39.57172108 C333.96702685 41.89446803 335.38834232 44.21562439 336.81002045 46.53656483 C337.15950745 47.10760944 337.50899445 47.67865406 337.86907196 48.26700306 C340.82140026 53.0850032 343.82855267 57.86626003 346.8608017 62.63422108 C352.30357008 71.20103937 357.61641307 79.8454337 362.92354584 88.49676991 C367.00113552 95.13587844 371.1207671 101.74509191 375.2983017 108.32172108 C397.34313034 143.07478845 397.34313034 143.07478845 397.29439545 164.47015858 C397.29897053 165.8395968 397.30427998 167.20903274 397.31027985 168.57846546 C397.31915947 171.43438573 397.31684796 174.29002561 397.30684662 177.14593983 C397.29537272 180.77240334 397.31556929 184.3978907 397.34476376 188.02422619 C397.36327554 190.84874907 397.36280374 193.67304452 397.35712624 196.49761295 C397.35690213 198.47371294 397.37365915 200.44979208 397.39093781 202.42581654 C397.26740825 218.59791129 391.21503292 230.62114811 380.5951767 242.51703358 C378.8608017 244.13422108 378.8608017 244.13422108 376.8608017 244.13422108 C377.29650482 244.61890858 377.73220795 245.10359608 378.1811142 245.60297108 C391.22702559 260.28668087 397.16270775 272.41064558 397.1967392 292.27484608 C397.20318203 293.64714153 397.20991144 295.01943567 397.21691132 296.3917284 C397.22883457 299.25953824 397.23259738 302.12722808 397.23140717 304.99506092 C397.23120447 308.63723118 397.25847684 312.27861689 397.29295158 315.92060184 C397.31539097 318.75368117 397.31923953 321.5865769 397.31818771 324.41973591 C397.32163901 326.40472186 397.34319311 328.38965051 397.36528778 330.37451649 C397.31451278 340.56192547 395.5535754 349.53215598 389.8608017 358.13422108 C385.88165115 360.81140007 381.49672058 360.97711542 376.8608017 360.13422108 C373.8608017 357.69672108 373.8608017 357.69672108 371.8608017 355.13422108 C371.5308017 354.80422108 371.2008017 354.47422108 370.8608017 354.13422108 C370.6576767 352.38422108 370.6576767 352.38422108 370.6108017 350.13422108 C370.58502045 349.41234608 370.5592392 348.69047108 370.5326767 347.94672108 C370.8361956 345.3451305 371.41056657 343.63449335 372.35201263 341.22528553 C374.30434729 335.45380593 374.32844154 329.91158285 374.3295517 323.86468983 C374.33716522 322.70729801 374.34477875 321.5499062 374.35262299 320.3574419 C374.36338235 317.91936864 374.36629414 315.48124944 374.36177826 313.04315662 C374.36080725 309.3428991 374.40245484 305.64472615 374.4467392 301.94476795 C374.45194818 299.56391285 374.45463436 297.18305062 374.4545517 294.80218983 C374.47914459 293.16566708 374.47914459 293.16566708 374.50423431 291.49608326 C374.4205295 282.0405651 372.0383102 273.25705608 365.5483017 266.13422108 C354.43821323 256.31433643 340.33125013 256.83772084 326.27462006 256.88025379 C324.60654534 256.87794624 322.93847164 256.87476774 321.27040005 256.8707993 C316.71022589 256.86248318 312.15013591 256.86656206 307.58996153 256.87277174 C302.66283072 256.87730829 297.73571409 256.87030651 292.80858612 256.8648119 C283.16563156 256.85592909 273.52270817 256.85783496 263.8797524 256.86363718 C256.04114734 256.86815804 248.202551 256.86876474 240.36394501 256.86658955 C239.24736541 256.86628308 238.13078581 256.86597661 236.98037046 256.86566086 C234.71190238 256.8650214 232.4434343 256.86437297 230.17496622 256.86371568 C208.91468749 256.85801564 187.65442603 256.86456516 166.39415014 256.87531641 C148.16069462 256.88425162 129.92726457 256.88269949 111.69380951 256.87347889 C90.50844052 256.8627705 69.32308666 256.85856494 48.13771534 256.86470342 C45.87769636 256.8653405 43.61767737 256.86596924 41.35765839 256.86658955 C39.68979661 256.86705237 39.68979661 256.86705237 37.98824066 256.86752455 C30.16107916 256.86924978 22.33392728 256.86634009 14.50676727 256.86163044 C4.9651913 256.8560153 -4.57635176 256.8575514 -14.11792397 256.86819193 C-18.98407187 256.87344008 -23.85016495 256.87551995 -28.71631241 256.86889362 C-33.17477301 256.86291437 -37.63312822 256.86624182 -42.09157932 256.87684873 C-43.70045203 256.87907438 -45.30933373 256.87796531 -46.91820061 256.87309715 C-66.42487008 256.78156288 -66.42487008 256.78156288 -83.11185455 265.88812733 C-91.14598912 274.33164455 -92.75229062 283.46895013 -92.6704483 294.79047108 C-92.67618866 296.56484547 -92.67618866 296.56484547 -92.68204498 298.3750658 C-92.68475291 300.86266404 -92.67747077 303.3502913 -92.66068268 305.83783436 C-92.63925909 309.62347987 -92.66052489 313.40722764 -92.6860733 317.19281483 C-92.68342983 319.62120439 -92.67830446 322.04959278 -92.6704483 324.47797108 C-92.67854523 325.59804554 -92.68664215 326.71812 -92.69498444 327.87213612 C-92.57698415 337.86823025 -90.13083877 345.97568127 -83.2095108 353.37640858 C-76.61262052 358.97754183 -69.21149714 361.2849435 -60.71956635 361.27225208 C-59.95761217 361.27507336 -59.195658 361.27789464 -58.41061431 361.28080142 C-55.8496731 361.28915458 -53.28877508 361.29048628 -50.72782135 361.29193592 C-48.89477161 361.29660361 -47.06172302 361.30174709 -45.22867584 361.30733204 C-41.27703904 361.31861813 -37.32540981 361.32704984 -33.37376213 361.33345127 C-27.12552702 361.34412345 -20.87734621 361.36436609 -14.62914276 361.38657093 C3.13985967 361.44852189 20.908859 361.50251685 38.67794037 361.53558826 C48.48838581 361.55392754 58.29874043 361.58285439 68.10911912 361.62359297 C73.30159575 361.6446738 78.49395788 361.66012178 83.68647957 361.66240025 C88.57107867 361.6645461 93.45543933 361.68040913 98.33996582 361.70678997 C100.13221103 361.71398668 101.92448512 361.71608213 103.71674156 361.71268749 C106.16484956 361.70879147 108.61219653 361.7232511 111.06021881 361.74222279 C111.76830273 361.73669309 112.47638666 361.73116339 113.20592767 361.72546613 C117.80505261 361.78692657 120.96082594 362.70044504 124.8608017 365.13422108 C127.7955241 369.20496505 128.14517359 372.29968238 127.6733017 377.10687733 C126.38745075 380.31532272 124.51152911 381.94156707 121.8608017 384.13422108 C119.15688911 384.6253407 117.08193222 384.80703038 114.3861618 384.75999928 C113.64236082 384.76694382 112.89855984 384.77388837 112.13221943 384.78104335 C109.64392621 384.79828386 107.15717536 384.78000938 104.66890717 384.76190662 C102.88307702 384.76708573 101.09725214 384.77448595 99.31143951 384.78394032 C95.4666564 384.7995094 91.62230924 384.7993276 87.77751541 384.78693676 C81.69146409 384.76739323 75.60579999 384.78259612 69.51976776 384.80238819 C59.88568692 384.82955131 50.25176363 384.8330278 40.61765206 384.82661515 C23.38688711 384.81569052 6.15617077 384.84036789 -11.07454574 384.88036281 C-17.11706843 384.8933969 -23.15944648 384.8947141 -29.20197606 384.88622987 C-32.97300323 384.88258867 -36.74399393 384.88692425 -40.51501656 384.89307117 C-42.25518874 384.89415092 -43.99536713 384.89182813 -45.73552895 384.88572598 C-65.83785217 384.64731553 -65.83785217 384.64731553 -83.11185455 393.88812733 C-91.14598912 402.33164455 -92.75229062 411.46895013 -92.6704483 422.79047108 C-92.67618866 424.56484547 -92.67618866 424.56484547 -92.68204498 426.3750658 C-92.68475291 428.86266404 -92.67747077 431.3502913 -92.66068268 433.83783436 C-92.63925909 437.62347987 -92.66052489 441.40722764 -92.6860733 445.19281483 C-92.68342983 447.62120439 -92.67830446 450.04959278 -92.6704483 452.47797108 C-92.67854523 453.59804554 -92.68664215 454.71812 -92.69498444 455.87213612 C-92.57698415 465.86823025 -90.13083877 473.97568127 -83.2095108 481.37640858 C-77.17727071 486.49812186 -70.04191768 489.25370706 -62.20015717 489.27225208 C-60.95940933 489.27770542 -59.7186615 489.28315876 -58.44031525 489.28877735 C-57.06284338 489.28989713 -55.68537145 489.29094765 -54.30789948 489.29193592 C-52.85908097 489.29660453 -51.41026393 489.30174817 -49.96144867 489.30733204 C-46.83976822 489.31861193 -43.71809731 489.32704665 -40.59640312 489.33345127 C-35.65875315 489.344132 -30.72117168 489.36437718 -25.78356171 489.38657093 C-11.74222706 489.4484923 2.29910364 489.50250244 16.34053802 489.53558826 C24.09422647 489.5539385 31.84780023 489.5828792 39.60140437 489.62359297 C43.70400562 489.64465568 47.80646239 489.6601192 51.90912056 489.66240025 C55.76941857 489.66454907 59.62941576 489.68044211 63.48962212 489.70678997 C64.90452541 489.71397543 66.31946518 489.71608757 67.73438263 489.71268749 C69.66987939 489.70878018 71.60538523 489.72503618 73.54080963 489.74222279 C74.62278531 489.74553293 75.70476099 489.74884308 76.81952381 489.75225353 C81.13637357 490.29442579 84.45534462 491.91615827 87.7358017 494.75922108 C89.50937629 498.50343411 89.66267717 502.0814991 88.8608017 506.13422108 C86.4233017 509.13422108 86.4233017 509.13422108 83.8608017 511.13422108 C83.5308017 511.46422108 83.2008017 511.79422108 82.8608017 512.13422108 C80.89517298 512.24186959 78.92563463 512.27835001 76.95708466 512.28812122 C75.67319351 512.29672169 74.38930237 512.30532215 73.06650543 512.31418324 C71.62993662 512.31861914 70.19336738 512.32291744 68.75679779 512.32709217 C67.25391193 512.3349905 65.75102799 512.34325929 64.24814606 512.35187244 C59.293529 512.37815498 54.3389033 512.39342047 49.3842392 512.40765858 C47.67675649 512.4130184 45.96927383 512.41839591 44.26179123 512.42379093 C37.15032878 512.44544146 30.03886863 512.46417127 22.92738152 512.47541332 C12.75469754 512.4916008 2.58239878 512.52462604 -7.59013999 512.58181417 C-14.74957091 512.62067808 -21.90889961 512.64006619 -29.06843317 512.64533389 C-33.33861206 512.64896903 -37.60838072 512.66078989 -41.87844467 512.69343662 C-45.90870126 512.72380268 -49.93830574 512.7297292 -53.96865273 512.71805286 C-55.43625524 512.71783439 -56.90389049 512.72594852 -58.37138557 512.7437067 C-75.07922032 512.93462567 -88.39421722 508.43763271 -100.6391983 496.74750233 C-112.24622087 484.58685533 -115.61037688 471.2935961 -115.57279205 454.83343983 C-115.57736764 453.46639723 -115.58267724 452.09935692 -115.58867645 450.73231983 C-115.59755697 447.8805956 -115.59524425 445.02915214 -115.58524323 442.17743397 C-115.57378035 438.56003551 -115.59394848 434.94361725 -115.62316036 431.32634735 C-115.64169397 428.5060732 -115.64119593 425.68602635 -115.63552284 422.86570644 C-115.63529913 420.89574611 -115.65203997 418.92580656 -115.66933441 416.95592213 C-115.55116077 401.48595857 -110.80195286 388.56991379 -99.7641983 377.57172108 C-99.09646393 376.95168201 -98.42872955 376.33164295 -97.7407608 375.69281483 C-96.03868697 374.20744561 -96.03868697 374.20744561 -95.1391983 372.13422108 C-95.73087799 371.87125233 -96.32255768 371.60828358 -96.93216705 371.33734608 C-106.03845338 366.37321123 -110.73180255 354.51719313 -114.21073151 345.29315662 C-115.83841765 339.39591074 -115.46475794 333.19341937 -115.4751358 327.12640858 C-115.48157727 325.7550795 -115.48830659 324.38375175 -115.49530792 323.01242542 C-115.50724469 320.1428354 -115.51099278 317.2733654 -115.50980377 314.40375233 C-115.50960146 310.76277148 -115.53682784 307.12257883 -115.57134819 303.48178387 C-115.59381684 300.64866214 -115.5976352 297.81572362 -115.59658432 294.98252201 C-115.60003095 292.99924626 -115.62157409 291.0160277 -115.64368439 289.0328722 C-115.56658535 273.52435674 -110.8300363 260.59789657 -99.7641983 249.57172108 C-99.09646393 248.95168201 -98.42872955 248.33164295 -97.7407608 247.69281483 C-96.03868697 246.20744561 -96.03868697 246.20744561 -95.1391983 244.13422108 C-95.73087799 243.87125233 -96.32255768 243.60828358 -96.93216705 243.33734608 C-106.03845338 238.37321123 -110.73180255 226.51719313 -114.21073151 217.29315662 C-115.83841765 211.39591074 -115.46475794 205.19341937 -115.4751358 199.12640858 C-115.48157727 197.7550795 -115.48830659 196.38375175 -115.49530792 195.01242542 C-115.50724469 192.1428354 -115.51099278 189.2733654 -115.50980377 186.40375233 C-115.50960146 182.76277148 -115.53682784 179.12257883 -115.57134819 175.48178387 C-115.59381684 172.64866214 -115.5976352 169.81572362 -115.59658432 166.98252201 C-115.60003095 164.99924626 -115.62157409 163.0160277 -115.64368439 161.0328722 C-115.57920824 148.06345755 -112.07212066 137.63287359 -105.2641983 126.69672108 C-104.69829987 125.76352039 -104.13240143 124.83031971 -103.54935455 123.86884022 C-98.35752937 115.35581588 -92.98921814 106.95158531 -87.60404205 98.56000233 C-84.25002568 93.32549142 -80.96507978 88.05059674 -77.7016983 82.75922108 C-72.45800716 74.25999844 -67.18518337 65.77968274 -61.8813858 57.31781483 C-58.61238281 52.10089046 -55.35959631 46.87500531 -52.13529205 41.63031483 C-51.47641998 40.56337391 -50.81754791 39.49643299 -50.13871002 38.39716053 C-48.89157115 36.37680813 -47.649312 34.35343119 -46.41312408 32.32635975 C-37.14382037 17.34996577 -27.20309101 6.83033426 -10.1391983 1.13422108 C-6.70221092 0.33174984 -3.52599098 0.00718212 0 0 Z M-19.1391983 32.13422108 C-25.65245988 40.63585459 -30.93223022 50.03191391 -36.39188385 59.22772694 C-41.88652311 68.46287702 -47.69183366 77.49429434 -53.48490143 86.54388905 C-56.01190429 90.50072204 -58.51855197 94.47005184 -61.0141983 98.44672108 C-61.43717194 99.11671131 -61.86014557 99.78670155 -62.29593658 100.47699451 C-64.26990624 103.11867188 -64.26990624 103.11867188 -65.1391983 106.13422108 C70.8208017 106.13422108 206.7808017 106.13422108 346.8608017 106.13422108 C340.27077235 94.56521577 340.27077235 94.56521577 333.2983017 83.25922108 C332.26640362 81.63984219 331.23518789 80.02002836 330.2045517 78.39984608 C329.66572357 77.55357655 329.12689545 76.70730701 328.5717392 75.83539295 C326.10293011 71.93771833 323.66492449 68.02109172 321.22676849 64.10419178 C319.31513224 61.0362322 317.39544786 57.97343891 315.47408295 54.91156483 C313.21721491 51.31425396 310.98529846 47.70399542 308.77877045 44.07562733 C302.01576264 33.07950766 295.89012568 25.34028514 282.8608017 22.13422108 C278.92162136 21.72470711 275.01511689 21.72857848 271.0573349 21.75327015 C269.8962663 21.74859018 268.7351977 21.74391021 267.5389452 21.73908842 C264.33848992 21.72923748 261.13837975 21.7327221 257.93793344 21.74204707 C254.47774639 21.74886108 251.01760442 21.73834473 247.55742645 21.73010731 C240.78775754 21.71679276 234.01818862 21.71963751 227.24851584 21.72834523 C221.74489 21.73513036 216.2412921 21.73603491 210.73766327 21.73277378 C209.95327859 21.73231408 209.16889392 21.73185438 208.36074001 21.73138075 C206.76709739 21.73042154 205.17345477 21.7294489 203.57981217 21.72846298 C188.64891206 21.71991576 173.71806728 21.72973272 158.78717625 21.74586408 C145.98584401 21.75926666 133.1845934 21.75693838 120.38326263 21.7431078 C105.50446956 21.72704016 90.62572494 21.72073967 75.7469244 21.72994459 C74.15926298 21.7309002 72.57160156 21.73184331 70.98394012 21.73277378 C70.20285411 21.73323661 69.42176809 21.73369943 68.6170128 21.73417629 C63.12230565 21.73676263 57.62762932 21.73240286 52.13292694 21.72533512 C45.43340369 21.71690677 38.73398584 21.71922826 32.03447461 21.73517735 C28.61863866 21.74304217 25.20297822 21.74618244 21.78714371 21.7362299 C18.07934395 21.72802428 14.37203692 21.73832508 10.66426849 21.75327015 C9.59159383 21.74657798 8.51891916 21.73988582 7.4137392 21.73299086 C-3.20453526 21.81592306 -11.62355587 24.40202624 -19.1391983 32.13422108 Z M-86.46099091 139.92538929 C-92.63647334 148.05346804 -93.88653042 157.07318338 -93.76810455 166.98578358 C-93.77051651 168.16586994 -93.77292847 169.34595631 -93.77541351 170.56180286 C-93.77444086 173.03747412 -93.76118807 175.51316872 -93.73612213 177.98871326 C-93.70172111 181.75672331 -93.71552135 185.52239471 -93.73490143 189.29047108 C-93.72800407 191.70975179 -93.7183327 194.12902652 -93.70560455 196.54828358 C-93.71056442 197.66208393 -93.71552429 198.77588428 -93.72063446 199.92343616 C-93.56336578 210.46658831 -90.69857577 218.45108643 -83.43216705 226.15375233 C-76.95559143 231.74766006 -69.71112668 234.25649046 -61.26992702 234.26844215 C-60.56372126 234.27079438 -59.85751549 234.27314661 -59.12990955 234.27557012 C-56.74553428 234.28226726 -54.36121342 234.28180169 -51.97682953 234.2813921 C-50.25719989 234.28469029 -48.53757103 234.28841576 -46.81794316 234.29253358 C-42.07816832 234.30256697 -37.33840615 234.30627253 -32.5986222 234.30892289 C-27.49209101 234.31282202 -22.38556988 234.32240068 -17.2790451 234.33113575 C-4.93902133 234.35091209 7.40100328 234.36096823 19.74103895 234.36986354 C25.55006887 234.37424486 31.35909787 234.37961211 37.16812706 234.38485241 C56.47553983 234.40186649 75.78295202 234.41636079 95.09037113 234.42360115 C100.10247104 234.4255111 105.11457095 234.42743142 110.12667084 234.42938709 C111.3724282 234.42987083 112.61818557 234.43035457 113.90169316 234.43085297 C134.08327076 234.43915369 154.26478909 234.46449054 174.44634081 234.49696777 C195.15961257 234.53002927 215.8728542 234.54804912 236.58615249 234.55124539 C248.21857275 234.55341142 259.8509066 234.56217358 271.48330116 234.58770657 C281.3899963 234.60940117 291.29658405 234.61747009 301.20330025 234.60773978 C306.25768397 234.60319141 311.31184608 234.60511265 316.36619949 234.62450123 C320.99587098 234.64210725 325.62515875 234.64115591 330.25483417 234.62560394 C331.92719057 234.62322397 333.59957336 234.62757158 335.2718894 234.63943259 C347.80670219 234.7228095 357.43543821 233.33715247 366.88033295 224.42718983 C371.88519921 218.63260107 374.94845265 211.57870304 375.05367279 203.93524647 C375.06973572 202.873064 375.08579865 201.81088154 375.10234833 200.71651173 C375.14703361 195.83386427 375.18790975 190.95135196 375.21089935 186.06854725 C375.22739788 183.5033504 375.25460601 180.93819835 375.2929306 178.37323475 C375.34810248 174.6592082 375.36964142 170.94626027 375.3842392 167.23187733 C375.41824326 165.53431042 375.41824326 165.53431042 375.45293427 163.80244923 C375.42678666 153.79720177 372.93293379 145.10208592 366.0483017 137.63422108 C354.7114674 127.43953054 340.78062989 127.8363611 326.27462006 127.88025379 C324.60654534 127.87794624 322.93847164 127.87476774 321.27040005 127.8707993 C316.71022589 127.86248318 312.15013591 127.86656206 307.58996153 127.87277174 C302.66283072 127.87730829 297.73571409 127.87030651 292.80858612 127.8648119 C283.16563156 127.85592909 273.52270817 127.85783496 263.8797524 127.86363718 C256.04114734 127.86815804 248.202551 127.86876474 240.36394501 127.86658955 C239.24736541 127.86628308 238.13078581 127.86597661 236.98037046 127.86566086 C234.71190238 127.8650214 232.4434343 127.86437297 230.17496622 127.86371568 C208.91468749 127.85801564 187.65442603 127.86456516 166.39415014 127.87531641 C148.16069462 127.88425162 129.92726457 127.88269949 111.69380951 127.87347889 C90.50844052 127.8627705 69.32308666 127.85856494 48.13771534 127.86470342 C45.87769636 127.8653405 43.61767737 127.86596924 41.35765839 127.86658955 C39.68979661 127.86705237 39.68979661 127.86705237 37.98824066 127.86752455 C30.16107916 127.86924978 22.33392728 127.86634009 14.50676727 127.86163044 C4.9651913 127.8560153 -4.57635176 127.8575514 -14.11792397 127.86819193 C-18.98407187 127.87344008 -23.85016495 127.87551995 -28.71631241 127.86889362 C-33.17477301 127.86291437 -37.63312822 127.86624182 -42.09157932 127.87684873 C-43.70045203 127.87907438 -45.30933373 127.87796531 -46.91820061 127.87309715 C-61.73194572 127.83172769 -75.84114476 128.24561014 -86.46099091 139.92538929 Z " fill="#FFDB70" transform="translate(115.13919830322266,-0.13422107696533203)"/>
<path d="M0 0 C4.44818549 3.66228477 8.2724953 7.59012493 11.82861328 12.12963867 C12.80664325 13.25562702 13.78572015 14.38070732 14.76611328 15.50463867 C16.82861328 18.12963867 16.82861328 18.12963867 16.82861328 20.12963867 C17.58142578 20.09483398 18.33423828 20.0600293 19.10986328 20.02416992 C37.86415783 19.54620853 55.02036869 24.26342943 69.82861328 36.12963867 C70.64845703 36.77416992 71.46830078 37.41870117 72.31298828 38.08276367 C85.98529282 49.54711841 95.12377117 65.42284411 97.82861328 83.12963867 C99.47663337 105.42928705 96.15637813 125.73174415 81.46923828 143.23510742 C80.92783203 143.86030273 80.38642578 144.48549805 79.82861328 145.12963867 C79.22146484 145.93272461 78.61431641 146.73581055 77.98876953 147.56323242 C67.28796161 160.27648885 50.90546656 167.49187715 34.82861328 170.12963867 C28.51149794 170.66180693 22.16045151 170.55116938 15.82641602 170.53369141 C13.94251096 170.53940493 12.05860937 170.54637297 10.17471313 170.55448914 C5.09421017 170.5723238 0.01388082 170.57127092 -5.06664395 170.56554675 C-9.32105959 170.56244185 -13.57544251 170.56856153 -17.82985348 170.5745855 C-27.8704024 170.5885963 -37.91086616 170.58709724 -47.95141602 170.57568359 C-58.28471163 170.56419625 -68.61774787 170.57829636 -78.95100933 170.60508007 C-87.84991765 170.6272761 -96.74874478 170.63386593 -105.64767879 170.62800366 C-110.95090291 170.62464338 -116.25396069 170.62698766 -121.55716133 170.64425468 C-126.5437168 170.65978489 -131.52988923 170.65570113 -136.5164299 170.63694954 C-138.33842715 170.63328094 -140.16045318 170.63632126 -141.98242378 170.64683533 C-158.7977133 170.73641057 -172.7687316 167.38866721 -185.58935547 155.73901367 C-196.68989479 144.44661318 -201.55898168 130.78260343 -201.47216797 115.21582031 C-201.05696659 99.37699983 -194.41771968 87.06785292 -183.17138672 76.12963867 C-176.11842326 69.74838602 -167.61985791 65.41806656 -158.17138672 64.12963867 C-158.08501953 63.29303711 -157.99865234 62.45643555 -157.90966797 61.59448242 C-155.42501424 41.01060792 -147.10466088 23.44368775 -133.17138672 8.12963867 C-132.54876953 7.42581055 -131.92615234 6.72198242 -131.28466797 5.99682617 C-96.84505235 -30.82540436 -38.06550502 -30.36238774 0 0 Z M-112.17138672 19.12963867 C-112.85458984 19.73291992 -113.53779297 20.33620117 -114.24169922 20.95776367 C-128.13897209 33.95673373 -135.32762785 52.41843033 -136.67138672 71.12963867 C-136.99238815 75.40336362 -137.67671319 78.52622135 -140.17138672 82.12963867 C-143.65913202 84.38884012 -147.37265422 84.77417977 -151.42138672 85.44213867 C-157.57017115 86.57916173 -162.35467375 88.06415617 -167.17138672 92.12963867 C-167.79529297 92.64526367 -168.41919922 93.16088867 -169.06201172 93.69213867 C-176.2175974 100.18628366 -178.78069485 107.60175885 -179.26513672 117.14526367 C-179.00301617 125.48943455 -175.69122299 132.90685874 -170.17138672 139.12963867 C-162.83632612 145.37934884 -156.22809229 148.44046154 -146.52075195 148.39706421 C-145.77004614 148.40159532 -145.01934032 148.40612643 -144.24588585 148.41079485 C-141.74052075 148.42341387 -139.23537375 148.42182008 -136.72998047 148.42016602 C-134.92917096 148.42615309 -133.12836401 148.43295905 -131.32756042 148.44052124 C-126.44075417 148.45817669 -121.55401799 148.46287662 -116.66718292 148.46415281 C-113.60931168 148.46557597 -110.55145815 148.46984885 -107.49359131 148.47514725 C-96.81147129 148.49365063 -86.12940114 148.50181805 -75.44726562 148.50024414 C-65.51462892 148.49904477 -55.58221023 148.5201061 -45.64962864 148.55173147 C-37.10497555 148.57796086 -28.56039333 148.58860855 -20.01570034 148.58733332 C-14.9202095 148.58682536 -9.82491216 148.5924154 -4.72946167 148.61368942 C0.07067915 148.63318263 4.87044421 148.63312113 9.67059898 148.61865616 C11.42241661 148.61658017 13.17425843 148.62119585 14.92603493 148.63337708 C32.88305601 148.75005095 46.84096184 145.12852451 60.82861328 133.12963867 C72.67151015 119.84693756 76.77340817 105.67832883 75.82861328 88.12963867 C73.80355208 73.79975641 66.22153067 61.88521951 55.01611328 52.87963867 C42.69760437 44.14998669 30.81874212 42.7864339 16.16845703 42.8269043 C7.58067154 42.6744293 7.58067154 42.6744293 3.73876953 39.89135742 C3.10841797 38.97999023 2.47806641 38.06862305 1.82861328 37.12963867 C1.23177734 36.3278418 0.63494141 35.52604492 0.02001953 34.69995117 C-0.51751953 33.89299805 -1.05505859 33.08604492 -1.60888672 32.25463867 C-13.31501097 15.331926 -29.60852527 4.3714565 -50.07910156 0.44311523 C-72.35041085 -2.89368303 -95.46181854 3.96352459 -112.17138672 19.12963867 Z " fill="#FFDB70" transform="translate(414.17138671875,341.870361328125)"/>
<path d="M0 0 C0.72505334 -0.00297112 1.45010668 -0.00594224 2.19713134 -0.0090034 C4.63913811 -0.01771051 7.08109598 -0.01920034 9.52311707 -0.02069092 C11.26897283 -0.02531769 13.01482759 -0.03034215 14.76068115 -0.03573608 C19.51281261 -0.04887607 24.26492994 -0.0553082 29.01707673 -0.05974674 C31.98439554 -0.06267501 34.95171047 -0.06677935 37.91902733 -0.07125092 C47.19830394 -0.08493031 56.47757169 -0.09459469 65.75685769 -0.09845281 C76.4771893 -0.10293422 87.19739344 -0.12048414 97.91768628 -0.1494534 C106.19799367 -0.17105421 114.47826515 -0.18115624 122.75860041 -0.18249393 C127.70684146 -0.18354314 132.65496277 -0.18947563 137.60317421 -0.20731354 C142.25789983 -0.22376647 146.91241535 -0.22596327 151.56715965 -0.21717453 C153.27599016 -0.21640265 154.98483183 -0.22076669 156.69363403 -0.23063278 C159.02606932 -0.24331009 161.35775574 -0.2374989 163.69018555 -0.22705078 C164.99561215 -0.22851734 166.30103876 -0.2299839 167.64602375 -0.2314949 C171.29651926 0.16907621 173.14408763 0.91830284 176.03556824 3.14044189 C178.85282057 7.36632039 178.83515207 11.17668878 178.03556824 16.14044189 C175.84533906 18.96468478 174.20539617 20.55552793 171.03556824 22.14044189 C168.71582632 22.24166247 166.39307966 22.27558821 164.07113647 22.28088379 C163.34608313 22.28385491 162.62102979 22.28682603 161.87400514 22.28988719 C159.43199837 22.2985943 156.9900405 22.30008413 154.54801941 22.30157471 C152.80216364 22.30620148 151.05630889 22.31122594 149.31045532 22.31661987 C144.55832386 22.32975986 139.80620654 22.33619199 135.05405974 22.34063053 C132.08674093 22.3435588 129.11942601 22.34766314 126.15210915 22.3521347 C116.87283253 22.3658141 107.59356478 22.37547848 98.31427878 22.3793366 C87.59394718 22.38381801 76.87374303 22.40136793 66.15345019 22.43033719 C57.87314281 22.451938 49.59287133 22.46204003 41.31253606 22.46337771 C36.36429501 22.46442693 31.41617371 22.47035942 26.46796227 22.48819733 C21.81323664 22.50465025 17.15872112 22.50684706 12.50397682 22.49805832 C10.79514631 22.49728644 9.08630464 22.50165048 7.37750244 22.51151657 C5.04506716 22.52419388 2.71338073 22.51838269 0.38095093 22.50793457 C-0.92447568 22.50940113 -2.22990229 22.51086769 -3.57488728 22.51237869 C-7.22538279 22.11180758 -9.07295116 21.36258095 -11.96443176 19.14044189 C-14.78168409 14.9145634 -14.7640156 11.10419501 -13.96443176 6.14044189 C-9.6398025 0.56394627 -6.80895989 0.01552896 0 0 Z " fill="#FFDB70" transform="translate(269.9644317626953,276.85955810546875)"/>
<path d="M0 0 C0.72505334 -0.00297112 1.45010668 -0.00594224 2.19713134 -0.0090034 C4.63913811 -0.01771051 7.08109598 -0.01920034 9.52311707 -0.02069092 C11.26897283 -0.02531769 13.01482759 -0.03034215 14.76068115 -0.03573608 C19.51281261 -0.04887607 24.26492994 -0.0553082 29.01707673 -0.05974674 C31.98439554 -0.06267501 34.95171047 -0.06677935 37.91902733 -0.07125092 C47.19830394 -0.08493031 56.47757169 -0.09459469 65.75685769 -0.09845281 C76.4771893 -0.10293422 87.19739344 -0.12048414 97.91768628 -0.1494534 C106.19799367 -0.17105421 114.47826515 -0.18115624 122.75860041 -0.18249393 C127.70684146 -0.18354314 132.65496277 -0.18947563 137.60317421 -0.20731354 C142.25789983 -0.22376647 146.91241535 -0.22596327 151.56715965 -0.21717453 C153.27599016 -0.21640265 154.98483183 -0.22076669 156.69363403 -0.23063278 C159.02606932 -0.24331009 161.35775574 -0.2374989 163.69018555 -0.22705078 C164.99561215 -0.22851734 166.30103876 -0.2299839 167.64602375 -0.2314949 C171.29651926 0.16907621 173.14408763 0.91830284 176.03556824 3.14044189 C178.85282057 7.36632039 178.83515207 11.17668878 178.03556824 16.14044189 C175.84533906 18.96468478 174.20539617 20.55552793 171.03556824 22.14044189 C168.71582632 22.24166247 166.39307966 22.27558821 164.07113647 22.28088379 C163.34608313 22.28385491 162.62102979 22.28682603 161.87400514 22.28988719 C159.43199837 22.2985943 156.9900405 22.30008413 154.54801941 22.30157471 C152.80216364 22.30620148 151.05630889 22.31122594 149.31045532 22.31661987 C144.55832386 22.32975986 139.80620654 22.33619199 135.05405974 22.34063053 C132.08674093 22.3435588 129.11942601 22.34766314 126.15210915 22.3521347 C116.87283253 22.3658141 107.59356478 22.37547848 98.31427878 22.3793366 C87.59394718 22.38381801 76.87374303 22.40136793 66.15345019 22.43033719 C57.87314281 22.451938 49.59287133 22.46204003 41.31253606 22.46337771 C36.36429501 22.46442693 31.41617371 22.47035942 26.46796227 22.48819733 C21.81323664 22.50465025 17.15872112 22.50684706 12.50397682 22.49805832 C10.79514631 22.49728644 9.08630464 22.50165048 7.37750244 22.51151657 C5.04506716 22.52419388 2.71338073 22.51838269 0.38095093 22.50793457 C-0.92447568 22.50940113 -2.22990229 22.51086769 -3.57488728 22.51237869 C-7.22538279 22.11180758 -9.07295116 21.36258095 -11.96443176 19.14044189 C-14.78168409 14.9145634 -14.7640156 11.10419501 -13.96443176 6.14044189 C-9.6398025 0.56394627 -6.80895989 0.01552896 0 0 Z " fill="#FFDB70" transform="translate(269.9644317626953,148.85955810546875)"/>
<path d="M0 0 C1.09983067 -0.00551503 1.09983067 -0.00551503 2.22188014 -0.01114148 C4.69152144 -0.02220014 7.1611207 -0.02602583 9.63078308 -0.02983093 C11.39634333 -0.0360939 13.16190225 -0.04274055 14.92745972 -0.04974365 C19.73330427 -0.06716799 24.53913886 -0.07770915 29.34500718 -0.08594918 C32.34582776 -0.09109592 35.34664522 -0.09717177 38.34746361 -0.10346031 C47.73138927 -0.12251573 57.11530703 -0.13674655 66.49924833 -0.14507228 C77.34073754 -0.15484934 88.18202284 -0.18117964 99.02344018 -0.22157317 C107.39716417 -0.25170466 115.77082961 -0.2665383 124.14460677 -0.26985329 C129.14878132 -0.27220703 134.15273811 -0.28120944 139.15685463 -0.30631447 C143.86415258 -0.32954857 148.57108867 -0.33384727 153.27842903 -0.32355309 C155.00661674 -0.32305649 156.73482197 -0.32941332 158.46295547 -0.34310913 C160.82184979 -0.36075856 163.17943565 -0.35375728 165.53833008 -0.34057617 C166.22277232 -0.35154542 166.90721457 -0.36251466 167.61239749 -0.37381631 C172.30530533 -0.31047315 174.65682754 0.8508928 177.9596405 4.14717102 C179.70440621 7.63670244 179.53453183 11.34011289 178.9596405 15.14717102 C177.41788635 18.13200707 175.47651672 20.57944083 172.22858334 21.79506397 C169.10359767 22.28001646 166.06953797 22.27671972 162.90655518 22.28088379 C161.8409132 22.28428212 161.8409132 22.28428212 160.75374311 22.28774911 C158.37322168 22.29407925 155.99275732 22.29326038 153.61222839 22.29243469 C151.90548631 22.29542677 150.19874491 22.29882941 148.49200439 22.3026123 C143.85568615 22.31145084 139.21938636 22.31379034 134.5830605 22.31442809 C130.71367302 22.31537741 126.84428983 22.31905592 122.974904 22.32260019 C113.84717398 22.33074394 104.71945382 22.33318447 95.59172058 22.33247375 C86.17251932 22.33187274 76.75337529 22.34242948 67.33418852 22.35821742 C59.24916821 22.37128673 51.16416663 22.37665792 43.07913584 22.37601835 C38.24944354 22.37576321 33.4198021 22.37862308 28.59012032 22.3891964 C24.04866702 22.3988673 19.50731333 22.39896349 14.96585655 22.39167976 C13.29895508 22.39063272 11.63204743 22.39300391 9.96515656 22.39904022 C7.68988993 22.40674613 5.41496854 22.40212479 3.13970947 22.39440918 C1.22971208 22.39522633 1.22971208 22.39522633 -0.71887112 22.39605999 C-5.23715795 22.05749137 -7.97717727 21.09541463 -11.3528595 18.08467102 C-13.66660257 14.05704418 -13.88034166 10.69295685 -13.0403595 6.14717102 C-9.33770619 0.22292573 -6.72076493 0.02177415 0 0 Z " fill="#FFDB70" transform="translate(269.0403594970703,191.8528289794922)"/>
<path d="M0 0 C0.66644531 0.41378906 1.33289063 0.82757813 2.01953125 1.25390625 C2.71691406 1.67800781 3.41429687 2.10210937 4.1328125 2.5390625 C11.26493591 7.36096891 15.73852504 13.97622759 18.01953125 22.25390625 C19.24826131 32.9373908 17.43648751 42.09748886 11.125 50.89453125 C9.07033458 53.19697635 7.16449847 54.7719777 4.58203125 56.44140625 C3.47021484 57.17423828 3.47021484 57.17423828 2.3359375 57.921875 C-5.64387558 62.51060394 -14.87166426 63.30663883 -23.79296875 61.19140625 C-31.81400873 58.61488033 -38.2922185 53.2276785 -42.98046875 46.25390625 C-47.1325226 37.75517103 -47.55277691 29.52621668 -45.98046875 20.25390625 C-43.86782417 14.1861945 -40.90591018 9.44053146 -35.98046875 5.25390625 C-35.25859375 4.57328125 -34.53671875 3.89265625 -33.79296875 3.19140625 C-23.87272673 -3.64253825 -10.97553377 -5.84411538 0 0 Z M-21.98046875 22.25390625 C-24.43712072 25.93888421 -24.68133366 28.97362411 -23.98046875 33.25390625 C-22.18682964 36.06394085 -20.9616594 37.76331093 -17.98046875 39.25390625 C-12.0828414 39.88446867 -12.0828414 39.88446867 -7.04296875 37.12890625 C-4.72788537 33.90182032 -3.98046875 32.21630471 -3.98046875 28.25390625 C-5.32634889 24.21626584 -6.35083003 22.64743045 -9.98046875 20.37890625 C-15.01188827 18.49212393 -17.45203458 19.65246534 -21.98046875 22.25390625 Z " fill="#FFDB70" transform="translate(88.98046875,407.74609375)"/>
<path d="M0 0 C0.66644531 0.41378906 1.33289063 0.82757813 2.01953125 1.25390625 C2.71691406 1.67800781 3.41429687 2.10210937 4.1328125 2.5390625 C11.26493591 7.36096891 15.73852504 13.97622759 18.01953125 22.25390625 C19.24826131 32.9373908 17.43648751 42.09748886 11.125 50.89453125 C9.07033458 53.19697635 7.16449847 54.7719777 4.58203125 56.44140625 C3.47021484 57.17423828 3.47021484 57.17423828 2.3359375 57.921875 C-5.64387558 62.51060394 -14.87166426 63.30663883 -23.79296875 61.19140625 C-31.81400873 58.61488033 -38.2922185 53.2276785 -42.98046875 46.25390625 C-47.1325226 37.75517103 -47.55277691 29.52621668 -45.98046875 20.25390625 C-43.86782417 14.1861945 -40.90591018 9.44053146 -35.98046875 5.25390625 C-35.25859375 4.57328125 -34.53671875 3.89265625 -33.79296875 3.19140625 C-23.87272673 -3.64253825 -10.97553377 -5.84411538 0 0 Z M-21.98046875 22.25390625 C-24.43712072 25.93888421 -24.68133366 28.97362411 -23.98046875 33.25390625 C-22.18682964 36.06394085 -20.9616594 37.76331093 -17.98046875 39.25390625 C-12.0828414 39.88446867 -12.0828414 39.88446867 -7.04296875 37.12890625 C-4.72788537 33.90182032 -3.98046875 32.21630471 -3.98046875 28.25390625 C-5.32634889 24.21626584 -6.35083003 22.64743045 -9.98046875 20.37890625 C-15.01188827 18.49212393 -17.45203458 19.65246534 -21.98046875 22.25390625 Z " fill="#FFDB70" transform="translate(88.98046875,279.74609375)"/>
<path d="M0 0 C7.78624014 4.7965319 12.82299569 10.85435346 16.375 19.25 C18.14316238 29.85897426 17.29984402 38.5160686 12 48 C9.52221131 51.45868648 7.13013105 53.88121511 3.5625 56.1875 C2.45068359 56.92033203 2.45068359 56.92033203 1.31640625 57.66796875 C-6.66340683 62.25669769 -15.89119551 63.05273258 -24.8125 60.9375 C-32.83353998 58.36097408 -39.31174975 52.97377225 -44 46 C-48.15205385 37.50126478 -48.57230816 29.27231043 -47 20 C-44.88735542 13.93228825 -41.92544143 9.18662521 -37 5 C-36.278125 4.319375 -35.55625 3.63875 -34.8125 2.9375 C-24.55708323 -4.12734266 -11.30393403 -5.84973382 0 0 Z M-23 22 C-25.45665197 25.68497796 -25.70086491 28.71971786 -25 33 C-23.20636089 35.8100346 -21.98119065 37.50940468 -19 39 C-13.10237265 39.63056242 -13.10237265 39.63056242 -8.0625 36.875 C-5.74741662 33.64791407 -5 31.96239846 -5 28 C-6.34588014 23.96235959 -7.37036128 22.3935242 -11 20.125 C-16.03141952 18.23821768 -18.47156583 19.39855909 -23 22 Z " fill="#FFDB70" transform="translate(90,152)"/>
</svg>
